<svg width="29" height="29" viewBox="0 0 29 29" fill="none" xmlns="http://www.w3.org/2000/svg">
<path d="M1.18784 29C0.242108 28.6216 0 28.2584 0 27.2216C0 26.9794 0 26.7297 0.00756588 26.4875C0.0756588 25.1026 0.295069 23.7479 0.907905 22.4841C1.64179 20.9705 2.78424 19.9337 4.39577 19.4267C5.7425 18.9953 7.08166 18.5488 8.42838 18.1099C8.52674 18.0796 8.60997 18.0039 8.70076 17.9434C8.63266 17.8602 8.57214 17.7693 8.48891 17.7088C8.20897 17.5045 7.92147 17.3001 7.6264 17.1185C6.34777 16.3239 5.65927 15.1736 5.50039 13.6903C5.50039 13.66 5.49283 13.6373 5.49283 13.607C5.47013 13.2286 5.34907 12.994 4.94052 12.82C4.25202 12.5324 3.88886 11.927 3.87373 11.1777C3.8586 9.80796 3.8359 8.43818 3.91156 7.07597C4.09314 4.00342 6.35534 1.21845 9.30603 0.340583C13.7245 -0.968655 18.1657 1.63469 19.1568 6.14512C19.2779 6.69001 19.3081 7.26517 19.3232 7.83275C19.3459 8.87712 19.3308 9.92905 19.3308 10.9734C19.3308 11.9799 18.9071 12.5854 17.969 12.9713C17.8857 13.0016 17.8101 13.1227 17.7949 13.2135C17.7041 13.6524 17.6588 14.1065 17.5453 14.5454C17.2956 15.5141 16.7508 16.286 15.9337 16.8688C15.51 17.1715 15.0788 17.4515 14.6475 17.7542C14.587 17.7996 14.5492 17.8753 14.5038 17.9434C14.5643 17.9888 14.6248 18.0494 14.6929 18.0796C14.9577 18.178 15.2301 18.2613 15.4949 18.3521C15.8656 18.4807 16.2061 18.5791 16.6298 18.4353C16.9703 18.3218 17.3788 18.3823 17.7495 18.3748C18.1051 18.3672 18.4607 18.3748 18.8617 18.3748C18.8617 18.178 18.8542 17.9964 18.8617 17.8223C18.892 16.8385 19.6713 16.006 20.6548 15.9833C21.6914 15.9531 22.7279 15.9531 23.772 15.9833C24.8085 16.006 25.5878 16.8234 25.6105 17.8677C25.6181 18.0266 25.6105 18.1856 25.6105 18.3823C25.9585 18.3823 26.2763 18.3823 26.5865 18.3823C26.8967 18.3823 27.2069 18.3748 27.5247 18.3823C28.2131 18.3975 28.7276 18.7834 28.9395 19.4343C28.9546 19.4797 28.9773 19.5175 29 19.5629C29 22.3176 29 25.0799 29 27.8346C28.826 28.4551 28.425 28.8487 27.8122 29.0227C18.9374 29 10.0626 29 1.18784 29ZM8.75372 19.018C7.42969 19.4494 6.13592 19.9035 4.81946 20.3046C3.1474 20.8116 2.10331 21.9317 1.52074 23.536C1.06679 24.7696 0.960866 26.0486 0.968432 27.3502C0.968432 27.8951 1.11218 28.0389 1.65693 28.0389C6.17375 28.0389 10.6906 28.0389 15.215 28.0389C15.3133 28.0389 15.4193 28.0389 15.4949 28.0389C15.4949 25.1404 15.4949 22.2646 15.4949 19.3662C15.162 19.2526 14.8064 19.1391 14.4584 19.0256C13.785 20.5921 12.8923 21.3035 11.5834 21.2657C10.1156 21.2051 9.21524 20.4105 8.75372 19.018ZM11.6061 17.8829C12.2416 17.8677 12.862 17.6861 13.4143 17.3455C14.1028 16.9217 14.7837 16.4752 15.442 16.0136C16.1077 15.5444 16.5012 14.8709 16.6525 14.0687C16.7433 13.5768 16.8189 13.0848 16.9097 12.5929C16.9778 12.2221 17.0989 12.1162 17.4696 12.0708C18.0068 12.0102 18.3624 11.6318 18.3624 11.1172C18.3624 10.6102 18.0143 10.2166 17.4847 10.1409C17.0308 10.0804 16.9476 9.98202 16.9324 9.52795C16.9097 8.83171 16.4482 8.30953 15.7673 8.21115C14.4281 8.02195 13.1646 7.59058 11.9919 6.92461C11.7271 6.77326 11.5153 6.75812 11.2353 6.91704C10.055 7.59815 8.78398 8.02195 7.43726 8.21871C6.74876 8.3171 6.30237 8.84685 6.28724 9.54309C6.27968 9.95175 6.15862 10.088 5.7425 10.1409C5.64414 10.1561 5.53822 10.1788 5.43986 10.2166C5.03887 10.3756 4.7892 10.7994 4.84216 11.208C4.90269 11.6697 5.23559 12.0026 5.68954 12.0632C6.14349 12.1162 6.22672 12.1918 6.30237 12.6535C6.35534 12.9713 6.42343 13.2816 6.46126 13.5995C6.58988 14.6287 6.99843 15.499 7.87608 16.1044C8.37542 16.445 8.86721 16.7931 9.37412 17.1185C10.0475 17.5423 10.7662 17.8602 11.6061 17.8829ZM18.4153 9.40687C18.3548 8.40791 18.3926 7.43166 18.2338 6.47811C17.6134 2.77743 13.8758 0.295176 10.2139 1.10494C7.10436 1.79361 4.94808 4.38181 4.84216 7.58301C4.81946 8.18087 4.84216 8.77874 4.84216 9.39173C5.17506 9.32362 5.35664 9.20254 5.44743 8.85441C5.67441 7.98411 6.27211 7.43166 7.15732 7.28787C8.51161 7.0684 9.79024 6.65217 10.9781 5.95593C11.2883 5.7743 11.6212 5.72889 11.9616 5.84241C12.1735 5.91052 12.3702 6.03161 12.5669 6.13756C13.6034 6.69758 14.7005 7.07597 15.8732 7.24246C16.8341 7.37868 17.4999 7.8933 17.7647 8.83171C17.8479 9.17226 17.9992 9.33119 18.4153 9.40687ZM16.4406 23.6647C16.4406 23.7025 16.4331 23.7782 16.4331 23.8539C16.4331 25.042 16.4331 26.2302 16.4331 27.4183C16.4331 27.8649 16.6071 28.0313 17.0535 28.0313C20.5035 28.0313 23.9611 28.0313 27.4112 28.0313C27.8727 28.0313 28.0316 27.8649 28.0316 27.3956C28.0316 26.6616 28.0316 25.9199 28.0316 25.1858C28.0316 24.6712 28.0316 24.149 28.0316 23.6723C26.7378 23.6723 25.4592 23.6723 24.1654 23.6723C24.1654 23.8766 24.173 24.028 24.1654 24.1717C24.12 25.0193 23.5299 25.5945 22.6901 25.6021C22.3572 25.6096 22.0318 25.6096 21.6989 25.6021C20.9802 25.5794 20.4127 25.0647 20.3219 24.3458C20.2917 24.1339 20.2917 23.9144 20.2765 23.6571C18.9903 23.6647 17.7268 23.6647 16.4406 23.6647ZM22.221 22.7111C23.9536 22.7111 25.6937 22.7111 27.4263 22.7111C27.8576 22.7111 28.0316 22.5371 28.0316 22.1133C28.0316 21.3943 28.0316 20.683 28.0316 19.964C28.0316 19.4948 27.8651 19.3283 27.4036 19.3283C23.9536 19.3283 20.496 19.3283 17.0459 19.3283C16.5995 19.3283 16.4255 19.5024 16.4255 19.9413C16.4255 20.6451 16.4255 21.3565 16.4255 22.0603C16.4255 22.5447 16.5844 22.7036 17.0686 22.7036C18.7861 22.7111 20.5035 22.7111 22.221 22.7111ZM19.8377 18.3369C21.4493 18.3369 23.0381 18.3369 24.6421 18.3369C24.6421 18.1553 24.6496 17.9964 24.6421 17.8375C24.6194 17.3304 24.2486 16.9293 23.7493 16.9217C22.743 16.9066 21.7292 16.9066 20.7229 16.9217C20.2917 16.9293 19.9209 17.2472 19.8453 17.671C19.8075 17.8829 19.8377 18.1023 19.8377 18.3369ZM9.67675 18.3748C9.69945 19.1013 9.99452 19.631 10.5695 19.9943C11.2429 20.4181 11.9465 20.4181 12.6274 20.0019C13.21 19.6462 13.5051 19.1013 13.5354 18.3672C12.234 18.9878 10.9705 18.9878 9.67675 18.3748ZM21.2601 23.6874C21.2601 23.8388 21.2601 23.9598 21.2601 24.0809C21.2752 24.4745 21.4417 24.6409 21.8427 24.6409C22.1378 24.6409 22.4253 24.6485 22.7203 24.6409C22.9851 24.6334 23.144 24.482 23.1818 24.2323C23.2045 24.0582 23.1894 23.8842 23.1894 23.695C22.5387 23.6874 21.9259 23.6874 21.2601 23.6874Z" fill="#212C66"/>
</svg>
