<svg width="31" height="31" viewBox="0 0 31 31" fill="none" xmlns="http://www.w3.org/2000/svg">
<path d="M22.7702 0C22.4062 0 22.0421 0 21.678 0C21.6022 0.0151626 21.5263 0.0454879 21.4429 0.0530692C18.9853 0.310834 16.7402 2.26681 16.232 4.70042C16.0651 5.48887 16.0954 6.32282 16.0272 7.13402C16.0196 7.2629 16.0196 7.40695 15.9589 7.51308C15.4735 8.28638 15.792 9.40083 16.8919 9.80264C17.1118 9.88604 17.1801 9.98459 17.1953 10.2045C17.3014 11.8496 18.0144 13.1763 19.4025 14.0633C19.8804 14.3666 19.9714 14.6926 19.9183 15.1551C19.9107 15.2233 19.8804 15.3294 19.8273 15.3522C19.4404 15.5341 19.046 15.7236 18.6364 15.8753C18.5302 15.9132 18.3406 15.8677 18.242 15.7919C17.6883 15.3446 17.0891 15.0034 16.3837 14.8973C15.883 14.8215 15.3673 14.8139 14.8667 14.776C14.8894 14.6926 14.9349 14.5713 14.9425 14.4424C14.988 13.8359 15.0259 13.237 15.0639 12.6305C15.1625 11.0536 15.2611 9.46906 15.3521 7.89215C15.4204 6.64881 15.3597 5.41306 14.9425 4.22279C14.5708 3.16899 13.9564 2.33505 12.8566 1.94082C12.7504 1.90291 12.6518 1.81193 12.5836 1.72096C12.0829 1.09929 11.461 0.644412 10.7101 0.386647C10.2398 0.227439 9.73917 0.136464 9.25373 0.0151626C8.85172 0.0151626 8.44972 0.0151626 8.04013 0.0151626C7.74431 0.0682318 7.44091 0.0909758 7.15268 0.166789C5.3702 0.651993 4.02007 1.69821 3.10228 3.29787C2.7382 3.9347 2.49547 4.61702 2.37411 5.33725C2.32102 5.6405 2.44996 5.86794 2.70027 5.93617C2.95816 6.0044 3.17813 5.84519 3.26156 5.52678C3.28432 5.4358 3.29949 5.35241 3.32224 5.26143C3.747 3.54806 4.74823 2.26681 6.28799 1.44045C7.34989 0.871851 8.5104 0.826363 9.67849 1.02348C10.5963 1.18269 11.3548 1.61482 11.9388 2.35779C12.0754 2.52458 12.2726 2.68379 12.4774 2.75202C13.0918 2.96429 13.5317 3.37369 13.8351 3.9347C14.2978 4.78381 14.4419 5.70873 14.4495 6.64881C14.4571 7.60406 14.3888 8.56689 14.3357 9.52213C14.2523 11.0536 14.1612 12.585 14.0626 14.1164C14.0399 14.4727 13.964 14.5334 13.6151 14.5334C12.849 14.5334 12.0829 14.5334 11.3169 14.5334C11.241 14.5334 11.1652 14.5258 11.0893 14.5182C11.0817 14.4955 11.0666 14.4652 11.059 14.4424C11.1803 14.359 11.3093 14.2756 11.4306 14.1922C12.8263 13.2825 13.6682 12.0164 13.7896 10.3485C13.8654 9.34776 13.8275 8.33187 13.8275 7.32355C13.8275 6.79286 13.6227 6.52751 13.0993 6.39863C12.4091 6.21668 11.8251 5.86794 11.3244 5.35999C10.8845 4.90511 10.437 4.92786 10.035 5.40548C9.33717 6.23942 8.47247 6.85351 7.47884 7.29323C6.5838 7.69504 5.64326 7.88457 4.66479 7.93764C4.0504 7.96796 3.73942 8.28638 3.73183 8.89288C3.72425 9.21888 3.72425 9.5373 3.73183 9.86329C3.76217 11.8041 4.62687 13.2749 6.2804 14.2832C6.35625 14.3287 6.4321 14.3893 6.51554 14.4424C6.46244 14.4879 6.44727 14.5106 6.4321 14.5106C5.575 14.5182 4.71789 14.5258 3.86078 14.5182C3.65598 14.5182 3.55738 14.3893 3.54979 14.1846C3.52704 13.7298 3.4967 13.2825 3.46636 12.8276C3.37534 11.1749 3.27673 9.52213 3.1933 7.87699C3.17054 7.39936 3.03401 7.15676 2.72303 7.16434C2.41204 7.17193 2.26034 7.39936 2.29068 7.89215C2.40445 9.97701 2.52581 12.0619 2.63959 14.1467C2.6851 15.0034 3.13262 15.4356 3.98972 15.4356C4.72547 15.4356 5.46122 15.4356 6.19697 15.4356C6.29557 15.4356 6.39418 15.4507 6.49278 15.4583C6.49278 15.4886 6.50037 15.519 6.50037 15.5493C6.40935 15.5796 6.31833 15.6099 6.22731 15.6327C5.23367 15.8904 4.22486 16.1103 3.24639 16.4211C2.14656 16.7699 1.40323 17.528 1.14534 18.6804C1.03156 19.1731 0.986053 19.6735 0.932959 20.1739C0.697823 22.2587 0.462687 24.3436 0.227551 26.4209C0.151701 27.0577 0.0682659 27.6945 -0.0151691 28.3314C-0.0151691 28.6119 -0.0151691 28.9 -0.0151691 29.1805C0.0227566 29.2866 0.0606804 29.3852 0.0910206 29.4913C0.348911 30.3404 0.910202 30.8332 1.78248 30.9621C1.94177 30.9848 2.10105 30.9924 2.26792 30.9924C3.58013 30.9924 4.89234 30.9924 6.20455 30.9924C6.55346 30.9924 6.76584 30.8029 6.75826 30.53C6.75067 30.2646 6.54588 30.0902 6.21214 30.0902C5.81772 30.0827 5.42329 30.0902 5.02887 30.0902C4.80891 30.0902 4.59653 30.0902 4.36139 30.0902C4.49034 27.7097 4.6117 25.3671 4.73306 23.032C4.75581 22.5696 4.79374 22.1071 4.80891 21.6447C4.82408 21.3187 4.63445 21.1064 4.36897 21.1064C4.1035 21.1064 3.92904 21.2808 3.91387 21.5992C3.88353 22.001 3.86836 22.4028 3.84561 22.8046C3.83802 22.9714 3.81527 23.1382 3.8001 23.3125C3.01126 23.2292 2.26792 23.1458 1.50942 23.0624C1.58527 22.4104 1.65354 21.8114 1.7218 21.2125C1.79007 20.5984 1.85833 19.9919 1.91901 19.3778C2.00245 18.5666 2.32102 17.8995 3.06435 17.4977C3.41326 17.3081 3.8001 17.1868 4.16418 17.0428C4.27037 17.5735 4.33105 18.0663 4.46 18.5439C4.83166 19.8858 5.86323 20.3786 7.15268 19.8479C7.33472 19.7721 7.52435 19.6811 7.69122 19.575C8.06288 19.3399 8.41938 19.0822 8.79863 18.8244C9.42819 19.3399 10.1033 19.7948 10.9224 20.0147C10.9073 20.0753 10.8921 20.1208 10.8769 20.1663C10.657 20.8865 10.9452 21.5688 11.6354 21.8645C11.9464 21.9934 12.0829 22.1754 12.174 22.4938C12.4091 23.305 12.9097 23.9494 13.6379 24.3891C13.8882 24.5407 13.8275 24.753 13.8047 24.9425C13.7972 25.0183 13.6303 25.1017 13.5241 25.1321C12.9931 25.2761 12.447 25.3898 11.9161 25.549C11.0741 25.8068 10.4825 26.3299 10.2929 27.2169C10.1867 27.7173 10.1488 28.2328 10.0881 28.7408C10.035 29.1881 9.9819 29.6278 9.92122 30.0827C9.4737 30.0827 9.07169 30.0827 8.66969 30.0827C8.18424 30.0827 7.95669 30.2343 7.97186 30.5527C7.97945 30.856 8.19941 30.9924 8.66969 30.9924C13.2814 30.9924 17.8931 30.9924 22.5048 30.9924C22.5958 30.9924 22.6868 31 22.7778 30.9848C23.0433 30.9545 23.2178 30.7574 23.2026 30.5224C23.1798 30.2646 23.0357 30.1206 22.7778 30.0902C22.6792 30.0827 22.573 30.0827 22.4744 30.0827C22.0042 30.0827 21.5263 30.0827 21.0409 30.0827C21.0257 29.9538 21.0105 29.8401 20.9954 29.7339C20.8967 28.953 20.8133 28.1722 20.7071 27.3913C20.5933 26.6028 20.1762 26.0039 19.4328 25.7158C18.7957 25.4732 18.1206 25.3292 17.4683 25.1321C17.347 25.0942 17.1725 25.0183 17.1573 24.9349C17.1194 24.7303 17.0966 24.5256 17.3545 24.3663C18.1206 23.9039 18.6212 23.214 18.8412 22.3497C18.9019 22.0995 19.0157 21.9858 19.2508 21.9024C20.1686 21.5613 20.4492 20.5226 19.8576 19.7493C19.7969 19.6735 19.7438 19.575 19.7362 19.484C19.6983 18.9457 19.668 18.4074 19.6376 17.8692C19.8045 18.0814 19.979 18.3165 20.161 18.5363C20.5327 18.9836 21.0864 19.0291 21.5187 18.65C21.5794 18.597 21.6325 18.5515 21.7463 18.4529C21.7463 18.6121 21.7463 18.7107 21.7463 18.8092C21.7463 19.3778 21.7387 19.9389 21.7463 20.5075C21.7539 20.8714 21.9207 21.0685 22.2014 21.0685C22.482 21.0685 22.6489 20.8714 22.6489 20.515C22.6565 19.9161 22.6489 19.3248 22.6489 18.7259C22.6489 18.65 22.6641 18.5818 22.6716 18.4908C22.7247 18.5287 22.7551 18.5439 22.7778 18.5591C23.3695 19.0746 23.8549 19.0367 24.3403 18.415C24.7196 17.9298 25.1064 17.4522 25.4781 16.9594C25.5767 16.8229 25.6677 16.785 25.8346 16.8305C26.2518 16.9442 26.6765 17.0276 27.0937 17.1489C28.2163 17.4674 28.9369 18.1497 29.0506 19.3627C29.1265 20.136 29.2175 20.9093 29.301 21.675C29.354 22.1299 29.3996 22.5847 29.4527 23.0624C28.6638 23.1458 27.9205 23.2216 27.1392 23.305C27.1316 23.1458 27.1241 23.0169 27.1165 22.888C27.0937 22.4483 27.0785 22.001 27.0482 21.5613C27.0254 21.258 26.8207 21.0761 26.5552 21.0988C26.3049 21.1215 26.1532 21.3111 26.1456 21.6068C26.1456 21.6447 26.1456 21.6901 26.1456 21.7281C26.2594 23.8129 26.3655 25.8978 26.4793 27.9826C26.5173 28.6725 26.5476 29.3624 26.5855 30.0827C26.0242 30.0827 25.5009 30.0827 24.9775 30.0827C24.6362 30.0827 24.4465 30.2495 24.439 30.53C24.4314 30.8105 24.6286 30.9924 24.9623 30.9924C26.2669 31 27.564 31.0152 28.8686 30.9848C30.1581 30.9621 30.9848 30.0978 31 28.8242C31 28.5057 30.9621 28.1798 30.9317 27.8613C30.6132 25.0259 30.2946 22.1905 29.9836 19.3551C29.8774 18.3619 29.5209 17.5128 28.6866 16.8912C28.1556 16.4969 27.5261 16.3377 26.9117 16.1558C26.2897 15.9738 25.6753 15.7464 25.0458 15.5569C24.5907 15.4204 24.4086 15.1475 24.4769 14.6698C24.5072 14.4727 24.5451 14.3514 24.7272 14.2453C26.2669 13.3355 27.0861 11.9709 27.2378 10.2045C27.2606 9.95427 27.344 9.84813 27.5792 9.77232C28.4363 9.47664 28.9293 8.55931 28.5955 7.80117C28.4287 7.41453 28.4135 7.05062 28.4135 6.6564C28.4135 6.43654 28.4135 6.2091 28.4059 5.98924C28.3604 3.51015 26.6462 1.15236 24.2948 0.363903C23.7942 0.204696 23.2784 0.121301 22.7702 0ZM18.0296 8.9687C18.0448 8.9687 18.0599 8.9687 18.0675 8.9687C18.0675 8.51382 18.0599 8.05894 18.0751 7.60406C18.0751 7.49792 18.1206 7.35388 18.2041 7.29323C18.7881 6.84593 19.0688 6.23942 19.1218 5.52678C19.1446 5.26901 19.2508 5.1932 19.4859 5.23111C21.2912 5.5192 23.104 5.46613 24.9092 5.23111C25.1899 5.1932 25.2885 5.29934 25.3112 5.56469C25.3643 6.247 25.6298 6.82318 26.1759 7.2629C26.2594 7.33113 26.3352 7.47518 26.3352 7.58132C26.3504 8.37735 26.358 9.17339 26.3352 9.96943C26.2745 12.4713 24.128 14.3059 21.6477 13.9799C19.9031 13.7525 18.4999 12.4713 18.1737 10.7427C18.0751 10.159 18.0827 9.56004 18.0296 8.9687ZM4.68755 8.83981C7.06166 8.70335 9.09445 7.81634 10.7025 6.03473C10.748 6.05747 10.7707 6.06505 10.7935 6.0878C11.3548 6.63365 12.0071 7.01272 12.758 7.23258C12.8414 7.25532 12.9325 7.41453 12.9325 7.51308C12.9552 8.21815 12.9628 8.92321 12.9552 9.62827C12.9325 11.0536 12.447 12.2438 11.2941 13.1612C9.85295 14.3135 7.50918 14.2756 6.12112 13.0474C4.84683 11.9178 4.50551 10.485 4.68755 8.83981ZM16.9677 6.70188C16.7629 5.06432 17.4835 2.95671 19.3722 1.75128C21.1471 0.614087 23.4301 0.614086 25.1899 1.84226C26.8737 3.01736 27.5867 4.67767 27.4881 6.71705C26.5931 6.61091 26.3049 6.32282 26.2138 5.46613C26.2063 5.36757 26.1835 5.26901 26.1683 5.17046C26.0697 4.73074 25.7512 4.41233 25.3036 4.35926C25.023 4.32893 24.7348 4.33651 24.4617 4.37442C23.1343 4.57153 21.8069 4.57911 20.4796 4.43507C20.1686 4.39716 19.8576 4.36684 19.5466 4.32893C18.8033 4.24554 18.3027 4.65493 18.2268 5.40548C18.1434 6.30007 17.8021 6.64881 16.9677 6.70188ZM17.9917 30.0675C16.3078 30.0675 14.6694 30.0675 13.0235 30.0675C13.0235 29.7415 13.0311 29.4307 13.0235 29.1198C13.0083 28.7863 12.6746 28.5588 12.4167 28.7332C12.2726 28.8242 12.174 29.044 12.136 29.2184C12.0829 29.4913 12.0981 29.7718 12.0829 30.0599C11.6658 30.0599 11.2865 30.0599 10.8693 30.0599C10.9755 29.1956 11.0741 28.3541 11.1803 27.5126C11.2486 26.9895 11.5672 26.6483 12.045 26.474C12.4622 26.3299 12.8945 26.2314 13.3269 26.1328C13.4027 26.1176 13.5089 26.1783 13.5772 26.2389C14.7377 27.2927 16.2699 27.2852 17.4304 26.2389C17.4987 26.1783 17.6276 26.1252 17.711 26.148C18.0979 26.2314 18.4771 26.3223 18.8488 26.4361C19.448 26.618 19.7817 27.0426 19.85 27.6642C19.8804 27.9447 19.9259 28.2252 19.9562 28.5057C20.0093 29.0213 20.0624 29.5368 20.1155 30.0599C19.6831 30.0599 19.3039 30.0599 18.9019 30.0599C18.8867 29.7567 18.8715 29.4762 18.8488 29.1956C18.8109 28.8317 18.6364 28.6574 18.3482 28.6877C18.0751 28.7104 17.931 28.9227 17.9462 29.2639C17.9689 29.5216 17.9841 29.7794 17.9917 30.0675ZM18.0675 19.9919C18.0675 20.5605 18.0903 21.0988 18.0599 21.6295C17.9917 22.9714 16.8312 24.0479 15.4962 24.0252C14.1006 24.0024 12.978 22.9107 12.9476 21.5461C12.9325 21.023 12.9401 20.4999 12.9401 19.9692C12.9401 19.8858 12.9628 19.7797 13.0235 19.7342C13.3876 19.4461 13.7592 19.1731 14.1385 18.8851C15.1852 20.0147 16.5354 20.2573 18.0675 19.9919ZM12.1816 19.0822C12.2119 17.8313 12.7125 16.8305 13.782 16.1785C14.9349 15.4735 16.1333 15.5038 17.2711 16.2089C18.3482 16.8684 18.8336 17.8692 18.8336 19.0443C18.4923 19.0594 18.1813 19.067 17.8779 19.0898C17.5669 19.1125 17.2559 19.1959 16.9449 19.1807C16.012 19.1428 15.1852 18.8623 14.6543 18.0132C14.3509 17.5432 13.7972 17.5507 13.5013 18.0435C13.1904 18.5666 12.7732 18.9154 12.1816 19.0822ZM27.5261 30.0751C27.4275 28.1039 27.3288 26.1631 27.2302 24.2147C28.0343 24.1313 28.7928 24.0479 29.5664 23.9721C29.6347 24.5559 29.6954 25.1017 29.7561 25.6552C29.8622 26.6635 29.9836 27.6794 30.0746 28.6877C30.1429 29.4686 29.7105 30.022 29.0051 30.0675C28.5349 30.0978 28.0494 30.0751 27.5261 30.0751ZM3.47394 30.0827C3.05677 30.0827 2.67752 30.0827 2.30585 30.0827C2.21483 30.0827 2.12381 30.0827 2.03279 30.0751C1.44116 30.0296 1.05432 29.7036 0.955713 29.1198C0.917788 28.8848 0.917789 28.6346 0.940544 28.3996C1.02398 27.5581 1.12258 26.7166 1.22119 25.875C1.28945 25.2458 1.3653 24.6165 1.44115 23.9645C2.23758 24.0479 3.00367 24.1313 3.78493 24.2147C3.67874 26.1934 3.57255 28.1191 3.47394 30.0827ZM10.1336 14.7532C10.1791 15.193 10.1715 15.5948 10.2625 15.9663C10.3839 16.4363 10.8693 16.4211 11.2334 16.55C10.1033 18.0814 7.44091 18.0814 6.35625 16.5424C6.72792 16.4211 7.21336 16.4363 7.32714 15.9587C7.41816 15.5796 7.41816 15.1702 7.46367 14.7532C8.36629 14.9731 9.25373 14.9958 10.1336 14.7532ZM23.6198 14.7381C23.5743 15.0413 23.6122 15.337 23.4832 15.481C23.104 15.9132 22.6489 16.2922 22.2165 16.7016C21.8449 16.3529 21.5187 15.9966 21.1395 15.7009C20.7981 15.4356 20.8057 15.1323 20.8664 14.7457C21.7614 14.9807 22.6489 14.9883 23.6198 14.7381ZM5.08197 16.8836C5.12748 16.8533 5.1654 16.8154 5.21091 16.785C5.30193 16.8381 5.40812 16.8836 5.49156 16.9594C5.83289 17.2702 6.13629 17.6266 6.50795 17.8995C6.85686 18.1497 7.27404 18.3165 7.72156 18.5439C7.32714 18.7334 6.97064 18.9381 6.59139 19.0746C6.02251 19.2717 5.63568 19.1049 5.44605 18.5287C5.27159 17.9905 5.19574 17.4294 5.08197 16.8836ZM16.2395 24.897C16.2547 25.0562 16.2547 25.223 16.2926 25.3747C16.3306 25.5263 16.414 25.6628 16.4747 25.8144C15.883 26.2162 15.079 26.2162 14.5632 25.8371C14.6467 25.5035 14.7301 25.1927 14.806 24.9046C15.2687 24.897 15.7389 24.897 16.2395 24.897ZM21.5415 17.3157C21.3139 17.5507 21.1167 17.7554 20.8892 17.9905C20.4872 17.4749 20.0851 16.9594 19.668 16.4363C19.8348 16.3529 19.979 16.2695 20.1307 16.2164C20.2065 16.1937 20.3355 16.1937 20.3885 16.2468C20.783 16.5955 21.1622 16.9594 21.5415 17.3157ZM24.7348 16.4515C24.3328 16.967 23.9383 17.4749 23.5363 17.9829C23.3012 17.7554 23.0964 17.5507 22.8689 17.3309C23.1647 17.0504 23.4453 16.785 23.7335 16.5197C24.1659 16.1103 24.1659 16.1103 24.7348 16.4515ZM9.89846 18.5515C10.4673 18.2482 10.9604 17.9905 11.4382 17.7327C11.37 18.18 11.2941 18.65 11.2107 19.1959C10.7632 18.9685 10.3384 18.7638 9.89846 18.5515ZM11.0817 15.5114C11.0893 15.4886 11.0969 15.4735 11.0969 15.4507C11.7795 15.4507 12.4622 15.4507 13.1828 15.4507C13.0007 15.6023 12.8642 15.7312 12.7049 15.8374C12.6291 15.8829 12.5153 15.9132 12.4319 15.8904C12.0374 15.807 11.6506 15.7085 11.2638 15.6023C11.2031 15.5872 11.1424 15.5417 11.0817 15.5114ZM27.2909 8.90805C27.2909 8.49107 27.2909 8.08926 27.2909 7.66471C27.5867 7.76327 27.7612 7.96038 27.7764 8.25605C27.7915 8.56689 27.6019 8.77916 27.2909 8.90805ZM17.1422 8.87772C16.816 8.764 16.634 8.53656 16.6567 8.26363C16.6795 7.96796 16.8388 7.77085 17.1422 7.66471C17.1422 8.08926 17.1422 8.48349 17.1422 8.87772ZM12.0071 20.2194C12.0071 20.4847 12.0071 20.7273 12.0071 20.9927C11.643 20.7425 11.643 20.4771 12.0071 20.2194ZM19.0157 20.2269C19.3646 20.4771 19.3646 20.7425 19.0157 20.9927C19.0157 20.7349 19.0157 20.4923 19.0157 20.2269Z" fill="#212C66"/>
</svg>
