<svg width="31" height="31" viewBox="0 0 31 31" fill="none" xmlns="http://www.w3.org/2000/svg">
<path d="M17.0731 0C17.623 0.185919 18.0355 0.51734 18.0597 1.1236C18.0759 1.45502 17.9303 1.78644 17.8495 2.1502C17.8333 2.14211 17.898 2.16636 17.9627 2.18253C19.5155 2.59478 20.6154 3.9528 20.6478 5.55332C20.6801 6.99218 20.6721 8.43911 20.6478 9.87797C20.6316 10.7752 20.1544 11.3896 19.3376 11.7291C19.1516 11.8018 19.0869 11.8907 19.0626 12.0928C18.7553 14.1056 17.6877 15.5849 15.8518 16.4821C15.5687 16.6196 15.4555 16.7651 15.496 17.0641C15.5121 17.2096 15.496 17.3632 15.496 17.4926C16.1834 17.6138 16.8547 17.727 17.5583 17.8482C17.5664 17.8159 17.5907 17.727 17.623 17.6462C17.7605 17.2986 18.0112 17.0884 18.3913 17.0561C18.5127 17.048 18.634 17.048 18.7553 17.048C22.4433 17.048 26.1393 17.0561 29.8273 17.0399C30.3853 17.0399 30.7816 17.2096 31 17.7351C31 21.89 31 26.0448 31 30.1997C30.7574 30.806 30.3045 30.9919 29.6655 30.9919C22.4028 30.9757 15.1401 30.9757 7.87738 30.9919C7.0767 30.9919 6.30029 30.9677 5.72606 30.321C5.66136 30.3533 5.6371 30.3695 5.61284 30.3776C4.39969 31.1374 3.13801 31.2183 1.88442 30.5231C0.614662 29.8279 0.00808766 28.7124 0 27.2654C0 26.4894 0 25.7134 0 24.9374C0 24.1452 0.388208 23.7492 1.18889 23.7492C2.38586 23.7492 3.59092 23.7492 4.7879 23.7492C4.90112 23.7492 5.02244 23.7411 5.13566 23.733C5.19228 20.3945 7.86929 17.5653 11.3632 17.5168C11.3632 17.2905 11.3793 17.0561 11.3551 16.8297C11.347 16.7327 11.2661 16.6115 11.1771 16.5711C9.22802 15.6576 8.08766 14.146 7.78033 12.012C7.76415 11.915 7.6671 11.7937 7.58623 11.7614C6.67232 11.3896 6.20324 10.7106 6.19515 9.73246C6.17897 8.38253 6.17897 7.03259 6.19515 5.68266C6.23559 3.23338 7.68328 1.1721 9.94782 0.347588C10.3926 0.185919 10.8617 0.113168 11.3146 0C13.2395 0 15.1563 0 17.0731 0ZM13.4336 29.9492C13.4336 29.448 13.4336 28.9872 13.4336 28.5265C13.4336 27.7585 13.838 27.3624 14.6144 27.3544C15.4798 27.3544 16.3452 27.3544 17.2186 27.3544C17.3238 27.3544 17.4289 27.3544 17.5421 27.3544C17.5502 27.2735 17.5583 27.2331 17.5583 27.2008C17.5583 24.5413 17.5583 21.8819 17.5502 19.2224C17.5502 19.1254 17.4451 18.9718 17.3561 18.9557C16.8385 18.8183 16.3209 18.7132 15.8033 18.6C15.5607 18.5515 15.4232 18.6081 15.3099 18.8748C14.9783 19.6913 14.3232 20.1035 13.4498 20.1359C12.6329 20.1682 11.8727 19.6508 11.5411 18.891C11.5007 18.794 11.4602 18.6889 11.4198 18.6C8.12001 18.5677 6.08192 21.4535 6.24367 23.7653C6.62379 23.7653 7.00391 23.7492 7.38403 23.7653C8.37882 23.8219 9.17141 24.5737 9.27655 25.5598C9.31698 25.9074 9.3089 26.2631 9.3089 26.6188C9.3089 28.0495 8.50822 28.866 7.08479 28.9226C6.99583 28.9226 6.8826 28.963 6.83407 29.0276C6.70467 29.2055 6.59953 29.3995 6.47822 29.6016C6.69658 29.8602 6.97965 29.9492 7.31124 29.9492C8.29794 29.9492 9.28463 29.9492 10.2794 29.9492C11.3146 29.9492 12.3499 29.9492 13.4336 29.9492ZM18.6097 27.3382C22.4028 27.3382 26.1717 27.3382 29.9405 27.3382C29.9405 24.2422 29.9405 21.1705 29.9405 18.0988C26.1555 18.0988 22.3866 18.0988 18.6097 18.0988C18.6097 21.1867 18.6097 24.2584 18.6097 27.3382ZM19.6207 9.09387C19.6288 9.09387 19.6288 9.09387 19.6207 9.09387C19.6207 8.85945 19.6207 8.63312 19.6207 8.3987C19.6207 7.99452 19.4508 7.77627 19.1435 7.75202C18.8523 7.73585 18.6501 7.92986 18.5854 8.30169C18.5288 8.60887 18.3347 8.7867 18.0597 8.77862C17.7929 8.77053 17.5987 8.56845 17.5583 8.26936C17.4693 7.54185 17.1135 7.17001 16.4099 7.09726C15.3827 6.99218 14.4526 6.64459 13.6115 6.06258C13.4902 5.98175 13.4013 5.9575 13.2638 6.0545C12.4065 6.65267 11.4521 7.00026 10.4088 7.10535C9.74563 7.17001 9.38977 7.55802 9.30081 8.22086C9.25228 8.58461 9.07436 8.77862 8.7832 8.77862C8.50013 8.77862 8.33029 8.61695 8.2575 8.26128C8.18471 7.91369 7.98252 7.72777 7.69136 7.75202C7.40021 7.77627 7.23037 7.99452 7.22228 8.3502C7.21419 8.79478 7.21419 9.23937 7.22228 9.68396C7.23037 10.4034 7.54579 10.751 8.2575 10.848C8.5891 10.8884 8.75085 11.0662 8.77511 11.4057C8.79129 11.6159 8.79937 11.8261 8.83173 12.0362C9.14714 14.5502 11.6786 16.4094 14.1696 15.9486C16.426 15.5364 17.9384 13.8065 18.0759 11.4785C18.1002 11.0096 18.2215 10.8884 18.6906 10.8318C19.2163 10.7752 19.5964 10.3711 19.6126 9.84563C19.6288 9.59505 19.6207 9.34446 19.6207 9.09387ZM8.6538 7.00026C9.08244 6.43442 9.64049 6.12725 10.3279 6.06258C11.2257 5.98175 12.0264 5.65841 12.7623 5.14915C13.2476 4.80965 13.6034 4.80156 14.0968 5.14107C14.8328 5.65033 15.6334 5.97366 16.5231 6.06258C17.162 6.12725 17.7039 6.37784 18.1164 6.88709C18.1487 6.91943 18.1891 6.95176 18.2296 6.99218C18.6582 6.70926 19.1192 6.65267 19.6288 6.79817C19.6288 6.45059 19.6288 6.12725 19.6288 5.80391C19.6207 4.18722 18.5288 3.10404 16.9032 3.09596C16.2805 3.09596 15.6496 3.09596 15.0269 3.09596C14.6872 3.09596 14.4688 2.88579 14.4688 2.5867C14.4688 2.2957 14.6872 2.07744 15.0188 2.06936C15.1967 2.06128 15.3827 2.03703 15.5607 2.06936C16.1349 2.17445 16.5554 1.94811 16.8789 1.50352C16.9517 1.40652 16.976 1.28527 17.0245 1.1721C16.9113 1.1236 16.7981 1.04276 16.6848 1.04276C15.0754 1.03468 13.4579 1.0266 11.8484 1.04276C9.77798 1.05085 7.97443 2.43312 7.4083 4.41356C7.18993 5.18957 7.22228 5.97366 7.24654 6.79009C7.75607 6.65267 8.20897 6.70926 8.6538 7.00026ZM1.04331 24.8081C1.04331 25.7377 1.00287 26.6592 1.0514 27.5726C1.12418 28.8417 2.15132 29.8441 3.42108 29.9492C4.67467 30.0542 5.85547 29.2136 6.11427 27.9606C6.21941 27.4675 6.17897 26.9421 6.19515 26.4248C6.20324 25.8913 6.19515 25.3658 6.19515 24.8162C4.46439 24.8081 2.76598 24.8081 1.04331 24.8081ZM18.6178 28.4052C18.6178 28.9306 18.6178 29.4318 18.6178 29.933C22.4109 29.933 26.1717 29.933 29.9486 29.933C29.9486 29.4156 29.9486 28.9226 29.9486 28.4052C26.1636 28.4052 22.4028 28.4052 18.6178 28.4052ZM14.4769 29.933C15.5202 29.933 16.5312 29.933 17.5421 29.933C17.5421 29.4156 17.5421 28.9226 17.5421 28.4214C16.5069 28.4214 15.504 28.4214 14.4769 28.4214C14.4769 28.9226 14.4769 29.4156 14.4769 29.933ZM12.4065 16.9671C12.4065 17.339 12.3984 17.7189 12.4065 18.0988C12.4226 18.6323 12.8109 19.0446 13.3446 19.1012C13.8299 19.1497 14.3394 18.8263 14.4122 18.3252C14.4769 17.8806 14.4284 17.4198 14.4284 16.9671C14.1049 16.9914 13.7814 17.0399 13.4579 17.0399C13.1344 17.0399 12.8028 16.9995 12.4065 16.9671ZM7.23846 27.8717C7.7965 27.8232 8.1928 27.5241 8.23324 27.031C8.27368 26.5622 8.27368 26.0853 8.23324 25.6164C8.18471 25.1314 7.7318 24.7919 7.23846 24.8243C7.23846 25.8347 7.23846 26.8451 7.23846 27.8717Z" fill="#212C66"/>
<path d="M2.66118 20.6451C2.52369 21.0007 2.39429 21.3322 2.26489 21.6636C2.1921 21.8495 2.10313 22.0273 2.0627 22.2213C1.99799 22.5366 1.80389 22.7225 1.51273 22.7063C1.23775 22.6902 1.00321 22.48 1.04365 22.189C1.09218 21.8495 1.18923 21.4938 1.35098 21.2028C1.56935 20.8148 1.57744 20.4996 1.35098 20.1116C1.18923 19.8367 1.09218 19.5053 1.04365 19.182C0.987037 18.8586 1.22158 18.6161 1.50465 18.5919C1.78771 18.5676 2.00608 18.7778 2.0627 19.1011C2.09505 19.279 2.1921 19.4568 2.2568 19.6265C2.39429 19.958 2.52369 20.2894 2.66118 20.6451Z" fill="#212C66"/>
<path d="M5.20072 19.0931C5.13602 19.3436 5.09558 19.5861 5.02279 19.8044C4.90147 20.152 4.7559 20.4834 4.61841 20.8229C4.52135 21.0654 4.33534 21.1947 4.07653 21.1624C3.82582 21.1301 3.65598 20.9684 3.63171 20.7017C3.59936 20.3137 3.7045 19.958 3.93096 19.6508C4.18976 19.2871 4.19785 18.9314 3.93904 18.5676C3.71259 18.2524 3.60745 17.9048 3.6398 17.5168C3.66406 17.25 3.80964 17.0884 4.07653 17.056C4.35151 17.0237 4.53753 17.1449 4.63458 17.4036C4.7559 17.7189 4.89339 18.026 5.00661 18.3413C5.0794 18.5838 5.13602 18.8425 5.20072 19.0931Z" fill="#212C66"/>
<path d="M24.6105 20.1439C25.1281 20.152 25.8884 20.3945 26.5354 20.9523C27.6434 21.9223 27.6515 23.4662 26.5677 24.4524C25.3142 25.5922 23.1709 25.5679 21.9497 24.4039C20.9306 23.4339 20.9387 21.9627 21.9659 21.0088C22.5724 20.443 23.3812 20.1439 24.6105 20.1439ZM24.1172 24.2665C24.9017 24.2665 25.4759 24.0644 25.8722 23.7087C26.503 23.1429 26.4949 22.2941 25.8641 21.7283C25.0311 20.9927 23.551 20.9846 22.7099 21.7202C22.0548 22.286 22.0467 23.1429 22.6938 23.7168C23.1547 24.1048 23.6966 24.2584 24.1172 24.2665Z" fill="#212C66"/>
<path d="M13.4177 14.4613C12.4472 14.4209 11.6546 14.0571 11.0318 13.3215C10.7811 13.0224 10.7811 12.7314 11.0237 12.5213C11.2583 12.3192 11.5575 12.3677 11.8163 12.6506C12.7383 13.6853 14.1051 13.6934 15.0271 12.6668C15.294 12.3677 15.6014 12.3192 15.8359 12.5374C16.0624 12.7476 16.0624 13.0467 15.8116 13.3377C15.1889 14.0814 14.3801 14.437 13.4177 14.4613Z" fill="#212C66"/>
<path d="M2.06219 26.9017C2.06219 26.7239 2.0541 26.538 2.06219 26.3601C2.07836 26.0287 2.28864 25.8186 2.59597 25.8266C2.88713 25.8347 3.08123 26.0287 3.08932 26.3601C3.09741 26.6754 3.08932 26.9826 3.09741 27.2978C3.1055 27.6535 3.25916 27.8233 3.61502 27.8879C3.97896 27.9526 4.15689 28.1547 4.11645 28.4699C4.07602 28.769 3.81721 28.9469 3.46944 28.9064C2.69303 28.8256 2.10263 28.2032 2.06219 27.411C2.06219 27.2493 2.06219 27.0715 2.06219 26.9017Z" fill="#212C66"/>
</svg>
