<svg width="23" height="32" viewBox="0 0 23 32" fill="none" xmlns="http://www.w3.org/2000/svg">
<path d="M8.08562 32C7.92305 31.8481 7.74336 31.723 7.5979 31.5532C6.99894 30.8294 6.39143 30.1055 5.81814 29.3638C5.61278 29.1047 5.41598 29.0332 5.10795 29.0779C4.15817 29.2119 3.20839 29.3281 2.25861 29.4353C1.58265 29.5068 1.29172 29.1047 1.53986 28.4345C2.29284 26.4239 3.04582 24.4043 3.79879 22.3937C3.88436 22.1703 3.88436 21.9827 3.79879 21.7503C3.60199 21.2052 3.44797 20.6423 3.29396 20.0882C3.09716 19.3555 2.70356 18.7836 2.09604 18.3636C1.64254 18.0597 1.20616 17.7291 0.778332 17.3895C0.0681382 16.8266 -0.162889 16.0938 0.110921 15.2091C0.282052 14.6551 0.461739 14.1011 0.649983 13.556C0.88101 12.8858 0.872454 12.2156 0.649983 11.5364C0.43607 10.8841 0.222156 10.2407 0.0595816 9.57942C-0.137219 8.80199 0.179373 8.19433 0.752662 7.72072C1.18049 7.37222 1.63399 7.04158 2.09604 6.72882C2.72067 6.29989 3.11427 5.72798 3.31107 4.97736C3.44797 4.45013 3.60199 3.9229 3.78168 3.40461C4.09827 2.49313 4.62878 2.08208 5.55289 2.05527C6.10051 2.0374 6.64812 2.04633 7.19574 2.0642C7.91449 2.09101 8.53912 1.86761 9.10385 1.394C9.51457 1.04549 9.93384 0.71486 10.3702 0.402099C11.1403 -0.151937 11.8505 -0.151937 12.6206 0.402099C13.057 0.71486 13.4762 1.04549 13.887 1.394C14.4517 1.86761 15.0763 2.09101 15.7951 2.0642C16.3512 2.0374 16.9074 2.0374 17.4722 2.05527C18.3449 2.08208 18.9097 2.50207 19.2091 3.36887C19.3888 3.90503 19.5514 4.45907 19.6969 5.00416C19.8937 5.72798 20.2701 6.29096 20.8777 6.70201C21.3312 7.00584 21.7675 7.33647 22.1954 7.67604C22.9312 8.26582 23.1451 8.94496 22.8799 9.88325C22.7259 10.4283 22.5376 10.9734 22.3579 11.5096C22.1184 12.2066 22.1269 12.8858 22.3579 13.5828C22.5719 14.2262 22.7858 14.8785 22.9484 15.5398C23.1109 16.1921 22.897 16.764 22.4178 17.1929C21.9986 17.5683 21.5451 17.9168 21.0745 18.2295C20.3215 18.721 19.8594 19.3912 19.637 20.2937C19.5086 20.8478 19.2947 21.375 19.1407 21.929C19.1065 22.0541 19.1321 22.215 19.1835 22.3401C19.9364 24.3775 20.7065 26.406 21.4595 28.4434C21.7076 29.1136 21.4253 29.5158 20.7408 29.4443C19.8081 29.346 18.8754 29.2298 17.9513 29.0958C17.6176 29.0421 17.3866 29.0958 17.1556 29.3996C16.5737 30.1681 15.9491 30.9008 15.333 31.6336C15.2132 31.7766 15.0507 31.8838 14.9052 32.0089C14.8025 32.0089 14.7084 32.0089 14.6057 32.0089C14.349 31.8838 14.2036 31.6693 14.1009 31.3923C13.3565 29.3817 12.5949 27.3711 11.8505 25.3516C11.7821 25.1728 11.7222 25.0656 11.4997 25.0656C11.2858 25.0656 11.2088 25.155 11.1403 25.3337C10.4044 27.3085 9.66003 29.2834 8.93272 31.2583C8.82149 31.5532 8.71025 31.8302 8.445 32C8.32521 32 8.20542 32 8.08562 32ZM6.54545 3.31525C6.32298 3.31525 5.9636 3.31525 5.60423 3.31525C5.24485 3.30631 5.01382 3.4761 4.91114 3.83354C4.79135 4.22673 4.65445 4.61991 4.56033 5.02204C4.2694 6.30883 3.59344 7.28286 2.51531 7.97093C2.14738 8.20327 1.79656 8.48922 1.4543 8.76624C1.24894 8.92709 1.16338 9.15943 1.2575 9.42751C1.41152 9.90112 1.54842 10.3837 1.71955 10.8483C2.11315 11.9296 2.15594 13.0198 1.76233 14.11C1.60832 14.5479 1.4543 14.9857 1.31739 15.4325C1.14626 15.9687 1.1976 16.1385 1.63399 16.4781C1.92491 16.7104 2.23294 16.9338 2.54954 17.1304C3.61911 17.8095 4.28652 18.7836 4.57744 20.0525C4.68012 20.4814 4.82558 20.9103 4.96248 21.3303C5.04805 21.6073 5.23629 21.7593 5.51866 21.7593C5.98927 21.7593 6.45988 21.7771 6.92193 21.7503C8.13696 21.6699 9.19798 22.0541 10.1221 22.8852C10.4472 23.1712 10.8066 23.4303 11.1574 23.6805C11.397 23.8503 11.6451 23.8503 11.8847 23.6805C12.2099 23.4392 12.5521 23.2158 12.8431 22.9388C13.8185 22.0452 14.9309 21.6431 16.2315 21.7503C16.6593 21.7861 17.0871 21.7593 17.5149 21.7593C17.7973 21.7593 17.9855 21.5984 18.0711 21.3303C18.208 20.9193 18.3535 20.5082 18.4476 20.0793C18.7385 18.7746 19.4316 17.7827 20.5354 17.0857C20.8948 16.8623 21.2199 16.5853 21.5536 16.3261C21.7675 16.1564 21.8531 15.924 21.759 15.6381C21.605 15.1734 21.4766 14.7087 21.3055 14.253C20.8777 13.1002 20.8691 11.9653 21.3055 10.8126C21.4424 10.4462 21.5622 10.0709 21.682 9.69559C21.8702 9.10581 21.8103 8.91815 21.3226 8.55178C21.006 8.31944 20.6894 8.0871 20.3557 7.8637C19.4059 7.23818 18.7813 6.35351 18.4904 5.21863C18.3792 4.78076 18.2594 4.33396 18.1139 3.90503C17.9428 3.39568 17.8144 3.30632 17.301 3.29738C16.8818 3.29738 16.4625 3.29738 16.0432 3.31525C15.1362 3.351 14.272 3.20802 13.5105 2.65398C13.1597 2.39484 12.826 2.11782 12.4837 1.84974C11.5168 1.0723 11.4826 1.08124 10.5071 1.84974C10.0194 2.23399 9.54024 2.61824 9.00973 2.931C8.29954 3.3778 7.48667 3.35993 6.54545 3.31525ZM8.04284 30.1591C8.73592 28.3004 9.41189 26.5043 10.0793 24.6992C10.105 24.6188 10.0451 24.4669 9.97662 24.4043C9.70281 24.1631 9.40333 23.9575 9.12952 23.7073C8.53912 23.1801 7.84604 22.9835 7.08451 23.0014C6.3572 23.0192 5.63845 23.0014 4.86836 23.0014C4.25229 24.6367 3.61911 26.3345 2.96881 28.077C3.80735 27.9698 4.59455 27.8983 5.3732 27.7732C5.83525 27.6928 6.16896 27.809 6.46844 28.2022C6.95616 28.8634 7.49522 29.48 8.04284 30.1591ZM14.948 30.1502C15.5384 29.4353 16.0946 28.7651 16.6336 28.086C16.8561 27.809 17.1128 27.7107 17.4465 27.7554C18.1909 27.8626 18.9268 27.9519 19.6712 28.0413C19.7739 28.0502 19.8765 28.0592 20.022 28.0681C19.3717 26.3345 18.7385 24.6367 18.131 23.0192C17.4379 23.0192 16.7876 23.055 16.1459 23.0103C15.2132 22.9478 14.3918 23.1801 13.6902 23.8414C13.4335 24.0826 12.9885 24.2524 12.9201 24.5384C12.8431 24.8333 13.1083 25.2264 13.2367 25.575C13.8014 27.0851 14.3661 28.5953 14.948 30.1502Z" fill="#212C66"/>
<path d="M19.3806 12.5551C19.3464 17.1125 15.8125 20.7852 11.4829 20.7673C7.14473 20.7495 3.61088 17.1125 3.62799 12.5194C3.65366 7.93516 7.20463 4.28031 11.5257 4.31606C15.8724 4.3518 19.4063 8.06026 19.3806 12.5551ZM4.83446 12.5283C4.8088 16.3529 7.78647 19.4895 11.4658 19.5073C15.1365 19.5252 18.1057 16.4512 18.1485 12.5819C18.1912 8.76621 15.1879 5.60285 11.5 5.57604C7.85493 5.55817 4.86013 8.66791 4.83446 12.5283Z" fill="#212C66"/>
<path d="M14.5545 16.2636C14.5545 16.8533 14.1096 17.1393 13.639 16.8891C12.9972 16.5585 12.364 16.201 11.7308 15.8436C11.5597 15.7453 11.4314 15.7453 11.2602 15.8436C10.6613 16.1921 10.0452 16.5138 9.43769 16.8533C9.18099 16.9963 8.93285 17.0499 8.68471 16.8623C8.43657 16.6657 8.4109 16.3976 8.46224 16.1027C8.58203 15.3789 8.71038 14.6461 8.81306 13.9134C8.83017 13.8061 8.77883 13.6453 8.70182 13.5738C8.2141 13.0555 7.70926 12.5462 7.20443 12.0457C6.99051 11.8313 6.84505 11.59 6.94773 11.2683C7.05041 10.9466 7.30711 10.8573 7.60659 10.8126C8.29967 10.7143 8.98419 10.616 9.67727 10.4909C9.77995 10.473 9.89974 10.3658 9.95108 10.2675C10.2677 9.62408 10.5757 8.96281 10.8837 8.31048C11.0121 8.02452 11.1918 7.81006 11.5084 7.81899C11.8164 7.82793 11.979 8.03346 12.1073 8.31048C12.4068 8.96281 12.7148 9.62408 13.04 10.2675C13.0913 10.3747 13.2282 10.473 13.3395 10.4998C14.024 10.6249 14.7171 10.7143 15.4102 10.8215C15.6925 10.8662 15.9407 10.9645 16.0348 11.2683C16.1289 11.5721 16.0091 11.8134 15.8038 12.0189C15.2989 12.5194 14.7941 13.0287 14.3064 13.547C14.2208 13.6364 14.1695 13.8151 14.1866 13.9402C14.2807 14.6372 14.409 15.3342 14.5203 16.0312C14.5374 16.1295 14.5459 16.2278 14.5545 16.2636ZM14.1096 11.9028C13.6817 11.8313 13.2539 11.7509 12.8175 11.7062C12.4581 11.6704 12.2442 11.4828 12.0988 11.1521C11.9191 10.7411 11.7223 10.339 11.4998 9.88322C11.2688 10.3658 11.072 10.7768 10.8837 11.1968C10.7468 11.5006 10.5415 11.6615 10.2249 11.6972C9.77995 11.7509 9.33501 11.8313 8.91574 11.9028C9.24089 12.2602 9.54037 12.6177 9.86551 12.9572C10.0709 13.1717 10.1564 13.404 10.0965 13.7168C10.0024 14.1904 9.94252 14.664 9.85696 15.1912C10.3105 14.941 10.6955 14.7444 11.0805 14.5121C11.38 14.3334 11.6538 14.3423 11.9533 14.5121C12.3298 14.7355 12.7234 14.941 13.1598 15.1734C13.0828 14.6998 13.04 14.2887 12.9459 13.8866C12.8346 13.4308 12.9544 13.0913 13.2967 12.7785C13.5791 12.5372 13.8272 12.2155 14.1096 11.9028Z" fill="#212C66"/>
</svg>
