<?xml version="1.0" encoding="utf-8"?>
<!-- Generator: Adobe Illustrator 26.3.1, SVG Export Plug-In . SVG Version: 6.00 Build 0)  -->
<svg version="1.1" id="Layer_1" xmlns="http://www.w3.org/2000/svg" xmlns:xlink="http://www.w3.org/1999/xlink" x="0px" y="0px"
	 viewBox="0 0 100 100" style="enable-background:new 0 0 100 100;" xml:space="preserve">
<style type="text/css">
	.st0{fill:#212C66;}
</style>
<g>
	<path class="st0" d="M80.7,44.6c0.9,0.1,1.7,0,2.5,0.2c2.7,0.5,4.7,2.9,4.7,5.6c0,13.1,0,26.2,0,39.2c0,0.9,0,1.9-0.1,2.8
		c-0.5,2.7-2.9,4.7-5.7,4.7c-21.4,0-42.8,0-64.1,0c-3.3,0-5.9-2.6-5.9-5.9c0-12.3,0-24.6,0-36.8c0-1.3,0-2.6,0-3.9
		c0-3.3,2.5-5.8,5.8-5.8c0.5,0,0.9,0,1.4,0c0.4-10.6,4.7-19.1,13.4-25.2c5.6-3.9,11.9-5.7,18.7-5.4C68.9,15,80.9,29.7,80.7,44.6z
		 M15,86.9c23.3,0,46.6,0,69.9,0c0-0.3,0-0.5,0-0.8c0-5.8,0-11.6,0-17.5c0-6,0-11.9,0-17.9c0-0.6-0.1-1.2-0.4-1.7
		c-0.5-1-1.5-1.4-2.8-1.4c-20.6,0-41.3,0-61.9,0c-0.7,0-1.3,0-2,0c-1.6,0.1-2.8,1.3-2.7,2.9c13.6,0,27.1,0,40.7,0c0,2.9,0,5.8,0,8.8
		c-13.6,0-27.2,0-40.8,0C15,68.5,15,77.7,15,86.9z M15,89.9c0,0.4,0,0.7,0,1c0,2.2,1.2,3.4,3.4,3.4c14.7,0,29.4,0,44.1,0
		c6.4,0,12.8,0,19.1,0c0.6,0,1.3-0.1,1.8-0.4c1.3-0.7,1.8-2.2,1.4-3.9C61.6,89.9,38.3,89.9,15,89.9z M51.5,33.4c0,3.7,0,7.5,0,11.3
		c5,0,9.9,0,14.8,0c0-4.4-0.6-8.7-1.8-12.6C60.1,32.4,55.8,32.9,51.5,33.4z M33.6,44.6c5,0,9.9,0,14.8,0c0-3.8,0-7.6,0-11.3
		c-4.4-0.5-8.7-0.9-13-1.4C34.2,36,33.6,40.3,33.6,44.6z M32.7,31.2c-1.9-0.7-3.7-1.3-5.6-2c-3.1,4.7-4.8,9.8-4.8,15.5
		c2.9,0,5.6,0,8.4,0C30.7,40,31.3,35.6,32.7,31.2z M72.9,29.1c-1.9,0.7-3.7,1.3-5.6,2c1.3,4.4,2,8.9,2,13.5c2.8,0,5.6,0,8.4,0
		C77.6,38.9,76,33.8,72.9,29.1z M15,56.3c12.6,0,25.2,0,37.8,0c0-0.9,0-1.9,0-2.8c-12.6,0-25.2,0-37.8,0C15,54.4,15,55.3,15,56.3z
		 M51.5,17.1c0,4.4,0,8.7,0,13.1c4-0.1,8-0.5,12-1.3c-0.7-1.4-1.3-2.7-2-3.9c-1.5-2.6-3.4-4.8-6-6.4C54.3,17.9,53,17.3,51.5,17.1z
		 M48.5,17.1c-2.3,0.3-4.1,1.4-5.8,2.8c-2.9,2.4-4.7,5.6-6.2,9.1c4,0.8,7.9,1.2,12,1.2C48.5,25.8,48.5,21.5,48.5,17.1z M39.2,19.2
		c-4,1.7-7.3,4.1-10.3,7.5c1.7,0.6,3.2,1.1,4.8,1.6C35.1,25,36.8,21.9,39.2,19.2z M71,26.8c-1.6-2.5-8.1-7.2-10.2-7.5
		c2.5,2.6,4.2,5.7,5.6,9.1C67.9,27.8,69.4,27.3,71,26.8z"/>
	<path class="st0" d="M9.2,47.3C7,44.2,5,41.2,3.7,37.7c-1.2-3.3,1.2-7.3,5.3-7.5c0.6,0,1-0.2,1.1-0.8c0.1-0.3,0.2-0.5,0.3-0.8
		c0.9,0.3,1.8,0.7,2.6,1c0,0.1,0,0.1,0,0.2c-0.6,1-0.4,1.6,0.5,2.5c1.5,1.5,1.9,3.4,1.2,5.4c-0.8,2.5-2.2,4.8-3.7,7
		C10.4,45.4,9.8,46.3,9.2,47.3z M9,42c0.1,0,0.2,0,0.4,0c0.8-1.7,1.8-3.4,2.5-5.2c0.5-1.2,0-2.4-1-3.2c-1-0.7-2.4-0.7-3.4,0
		s-1.6,2-1.1,3.2C7.2,38.5,8.1,40.2,9,42z"/>
	<path class="st0" d="M90.8,47.3c-2-2.8-3.8-5.6-5.1-8.6c-1.3-3-0.8-5.1,1.6-7.3c0.2-0.2,0.1-0.6,0.2-1c0.7-0.2,1.6-0.5,2.5-0.9
		c0.1,0.7,0.6,0.7,1.2,0.7c4,0.2,6.4,4.3,5.2,7.6c-0.9,2.5-2.3,4.8-3.7,7C92,45.5,91.4,46.3,90.8,47.3z M90.6,42c0.1,0,0.2,0,0.4,0
		c0.9-1.8,1.8-3.5,2.6-5.3c0.2-0.4,0.2-1,0-1.4c-0.4-1.6-2-2.5-3.6-2.1c-1.3,0.4-2.6,2.1-1.9,3.7C88.9,38.6,89.8,40.3,90.6,42z"/>
	<path class="st0" d="M69.5,8.1c0.9,0.5,1.7,0.9,2.6,1.3c-0.5,0.9-0.9,1.7-1.3,2.6c-0.9-0.4-1.7-0.9-2.6-1.3C68.6,9.8,69,9,69.5,8.1
		z"/>
	<path class="st0" d="M46,4c1-0.1,1.9-0.1,2.9-0.2c0.1,1,0.1,1.9,0.2,2.9c-1,0.1-1.9,0.1-2.9,0.2C46.1,5.9,46.1,5,46,4z"/>
	<path class="st0" d="M14.9,20.5c0.6-0.8,1.2-1.5,1.9-2.3c0.8,0.6,1.5,1.2,2.3,1.9c-0.6,0.8-1.2,1.5-1.9,2.3
		C16.4,21.7,15.7,21.1,14.9,20.5z"/>
	<path class="st0" d="M57.4,7.4c0.2-1,0.4-1.9,0.6-2.9c1,0.2,1.9,0.4,2.9,0.6c-0.2,1-0.4,1.9-0.6,2.9C59.3,7.8,58.4,7.6,57.4,7.4z"
		/>
	<path class="st0" d="M31.4,7.7c0.4,0.9,0.8,1.7,1.3,2.6c-0.9,0.4-1.7,0.8-2.6,1.3c-0.4-0.9-0.8-1.7-1.3-2.6
		C29.6,8.5,30.5,8.1,31.4,7.7z"/>
	<path class="st0" d="M26,10.5c0.6,0.8,1.1,1.6,1.6,2.4c-0.8,0.5-1.6,1.1-2.4,1.6c-0.5-0.8-1.1-1.6-1.6-2.4
		C24.4,11.6,25.2,11,26,10.5z"/>
	<path class="st0" d="M18.9,16c0.7-0.7,1.4-1.3,2.2-2c0.7,0.7,1.3,1.4,1.9,2.2c-0.7,0.7-1.4,1.3-2.2,2C20.3,17.4,19.6,16.7,18.9,16z
		"/>
	<path class="st0" d="M35.2,9.3c-0.3-0.9-0.6-1.8-0.9-2.8c0.9-0.3,1.8-0.6,2.8-0.9c0.3,0.9,0.6,1.8,0.9,2.8C37,8.7,36.1,9,35.2,9.3z
		"/>
	<path class="st0" d="M62.9,8.7c0.3-1,0.6-1.8,1-2.8c0.9,0.3,1.8,0.6,2.8,1c-0.3,0.9-0.6,1.8-0.9,2.8C64.7,9.3,63.8,9,62.9,8.7z"/>
	<path class="st0" d="M40.6,7.7c-0.2-1-0.3-1.9-0.5-2.9c1-0.2,1.9-0.4,2.9-0.5c0.2,1,0.3,1.9,0.5,2.9C42.5,7.4,41.6,7.6,40.6,7.7z"
		/>
	<path class="st0" d="M52,3.9C53,4,53.9,4,54.9,4.1c-0.1,1-0.1,1.9-0.2,2.9c-1-0.1-1.9-0.1-2.9-0.2C51.9,5.8,51.9,4.9,52,3.9z"/>
	<path class="st0" d="M86.2,27.9c-0.5-0.9-0.9-1.7-1.4-2.6c0.9-0.5,1.7-0.9,2.6-1.4c0.5,0.9,0.9,1.7,1.4,2.5
		C87.9,27,87,27.4,86.2,27.9z"/>
	<path class="st0" d="M11.7,25.6c0.5-0.9,1-1.7,1.5-2.5c0.8,0.5,1.6,1,2.5,1.5c-0.5,0.8-1,1.6-1.5,2.5
		C13.4,26.6,12.5,26.1,11.7,25.6z"/>
	<path class="st0" d="M85.6,21.3c-0.8,0.6-1.5,1.2-2.3,1.8c-0.6-0.8-1.2-1.5-1.8-2.3c0.8-0.6,1.5-1.2,2.3-1.8
		C84.4,19.7,85,20.5,85.6,21.3z"/>
	<path class="st0" d="M75.5,15.1c-0.8-0.6-1.6-1.1-2.4-1.7c0.6-0.8,1.1-1.6,1.7-2.4c0.8,0.6,1.6,1.1,2.4,1.7
		C76.6,13.5,76.1,14.2,75.5,15.1z"/>
	<path class="st0" d="M77.6,16.8c0.7-0.7,1.3-1.4,2-2.1c0.7,0.7,1.4,1.3,2.1,2c-0.7,0.7-1.3,1.4-2,2.1C79,18.1,78.3,17.5,77.6,16.8z
		"/>
	<path class="st0" d="M37.1,74.6c1.2,0.6,2.4,1.2,3.5,1.8c1.7,1,3,2.4,3.4,4.4c0.2,1,0.2,2.1,0.3,3.2c-1.1,0-2,0-3,0
		c0-0.5,0-0.9,0-1.4c0.1-1.5-0.5-2.7-1.8-3.4c-1.4-0.8-2.8-1.5-4.2-2.2c-0.1-0.1-0.4,0-0.5,0c-1.9,1-3.8,1-5.7,0
		c-0.2-0.1-0.4-0.1-0.6,0c-1.2,0.6-2.5,1.2-3.7,1.8c-1.7,0.8-2.5,2.2-2.4,4.1c0,0.3,0,0.6,0,0.9c0,0,0,0.1-0.1,0.2
		c-0.9,0-1.8,0-2.8,0c-0.3-2.8,0.2-5.3,2.7-7c1.1-0.8,2.3-1.3,3.5-1.9c0.3-0.2,0.6-0.3,0.9-0.4c-0.7-1.3-1.1-2.7-1-4.2
		c0.1-2.1,0.9-4,2.5-5.4c3.2-2.8,8.1-1.4,9.6,2.9C38.4,70.2,38.2,72.4,37.1,74.6z M35.1,70.7c0-1.3-0.5-2.4-1.3-3.2
		c-1.2-1.2-3-1.2-4.2,0c-1.8,1.7-1.7,4.9,0.1,6.6c1.2,1.1,2.9,1.1,4.1,0C34.7,73.1,35.1,72,35.1,70.7z"/>
	<path class="st0" d="M48.6,84c0-1,0-1.9,0-2.8c10.7,0,21.3,0,32,0c0,1,0,1.9,0,2.8C69.9,84,59.3,84,48.6,84z"/>
	<path class="st0" d="M57.3,62.2c4.4,0,8.7,0,13.1,0c0,1,0,1.9,0,2.9c-4.4,0-8.7,0-13.1,0C57.3,64.1,57.3,63.2,57.3,62.2z"/>
	<path class="st0" d="M80.6,53.5c0,0.9,0,1.9,0,2.8c-3.9,0-7.7,0-11.6,0c0-0.9,0-1.8,0-2.8C72.8,53.5,76.7,53.5,80.6,53.5z"/>
	<path class="st0" d="M69,72.3c0-0.9,0-1.8,0-2.8c3.9,0,7.7,0,11.6,0c0,0.9,0,1.9,0,2.8C76.7,72.3,72.8,72.3,69,72.3z"/>
	<path class="st0" d="M48.6,75.3c3.9,0,7.7,0,11.6,0c0,0.9,0,1.9,0,2.8c-3.9,0-7.7,0-11.6,0C48.6,77.2,48.6,76.3,48.6,75.3z"/>
	<path class="st0" d="M63.1,78.1c0-1,0-1.9,0-2.8c1.9,0,3.8,0,5.8,0c0,0.9,0,1.9,0,2.8C67,78.1,65.1,78.1,63.1,78.1z"/>
	<path class="st0" d="M71.9,78.2c0-0.9,0-1.9,0-2.8c1.9,0,3.8,0,5.8,0c0,0.9,0,1.9,0,2.8C75.7,78.2,73.8,78.2,71.9,78.2z"/>
	<path class="st0" d="M60.2,72.3c0-1,0-1.9,0-2.8c1,0,1.9,0,2.8,0c0,1,0,1.9,0,2.8C62.1,72.3,61.2,72.3,60.2,72.3z"/>
	<path class="st0" d="M54.4,72.3c0-1,0-1.9,0-2.8c0.9,0,1.9,0,2.8,0c0,0.9,0,1.9,0,2.8C56.3,72.3,55.4,72.3,54.4,72.3z"/>
	<path class="st0" d="M51.4,69.5c0,1,0,1.9,0,2.8c-0.9,0-1.9,0-2.8,0c0-0.9,0-1.9,0-2.8C49.5,69.5,50.4,69.5,51.4,69.5z"/>
</g>
</svg>
