<svg width="30" height="30" viewBox="0 0 30 30" fill="none" xmlns="http://www.w3.org/2000/svg">
<path d="M0.000976562 29.2878C0.000976562 27.9811 0.000976562 26.6744 0.000976562 25.3598C0.016638 25.3051 0.0401303 25.2503 0.0557917 25.1955C0.204576 24.6556 0.282883 24.0766 0.517805 23.5758C1.59062 21.2754 3.43084 20.0939 5.968 19.9843C6.10112 19.9765 6.26557 19.9374 6.35954 19.8513C6.7824 19.4679 7.26007 19.2019 7.81606 19.0845C7.8787 19.0688 7.95701 19.0454 7.98833 18.9984C8.12145 18.7872 7.96484 18.2003 7.76124 18.0751C6.03848 16.9797 5.0518 15.4226 4.80122 13.396C4.78556 13.3021 4.69159 13.1691 4.60545 13.13C4.1591 12.9343 3.80672 12.6448 3.56396 12.2223C3.27423 11.7059 3.07063 11.1503 3.05497 10.5557C3.02364 9.25677 2.961 7.95789 3.01581 6.66683C3.14893 3.54481 5.2789 0.970508 8.29373 0.203696C8.63045 0.117625 8.975 0.0628532 9.31956 -0.00756836C11.3164 -0.00756836 13.3054 -0.00756836 15.3022 -0.00756836C15.3257 0.00808087 15.3414 0.0315547 15.3727 0.0393793C16.1949 0.375838 16.4142 1.10353 15.913 1.83122C15.7564 2.06595 15.592 2.30069 15.4275 2.55108C15.6625 2.6215 15.8739 2.67627 16.0853 2.73887C17.5497 3.20052 19.108 4.55418 19.014 6.7216C18.967 7.78575 19.0218 8.84989 18.9905 9.91404C18.9749 10.3913 18.92 10.8686 18.8104 11.3303C18.6225 12.0736 18.2779 12.7466 17.5105 13.0674C17.2834 13.1613 17.2208 13.2864 17.1895 13.5134C16.9467 15.3913 16.0383 16.8779 14.4565 17.9108C14.0728 18.1612 13.9632 18.4194 14.0023 18.8263C14.018 18.9906 14.0572 19.061 14.2294 19.0923C14.7619 19.194 15.2083 19.4522 15.6155 19.8122C15.7173 19.9061 15.8817 19.953 16.0227 19.9765C16.5317 20.0547 17.0485 20.086 17.5497 20.1956C17.9647 20.2895 18.3562 20.4616 18.7791 20.6103C19.3351 19.2332 20.1651 18.036 21.2771 17.0031C21.1831 16.9875 21.1596 16.9875 21.1283 16.9875C20.7211 16.9718 20.5097 16.7919 20.5097 16.4789C20.5175 16.1659 20.7446 15.9859 21.144 15.9859C21.4024 15.9859 21.6608 15.9859 21.9584 15.9859C21.9036 15.8529 21.8644 15.7512 21.8252 15.6573C21.4259 14.7653 21.0265 13.8811 20.635 12.9891C20.2826 12.191 20.7446 11.4946 21.6216 11.4868C21.927 11.4868 22.2246 11.4868 22.53 11.4868C23.1173 11.4946 23.4306 11.7137 23.6263 12.2692C23.6811 12.4336 23.7594 12.4962 23.9395 12.4883C24.6052 12.4805 25.2708 12.4805 25.9286 12.4883C26.7664 12.4962 27.2206 13.1847 26.8996 13.9594C26.6568 14.5462 26.3984 15.1252 26.1478 15.7043C26.1087 15.7903 26.0852 15.8764 26.0382 15.9938C26.3827 15.9938 26.6881 15.9859 26.9857 15.9938C27.2989 16.0016 27.4947 16.205 27.4947 16.4867C27.5025 16.7684 27.3068 16.964 27.0014 16.9875C26.9387 16.9953 26.8761 16.9953 26.7664 16.9953C26.8448 17.0892 26.8917 17.144 26.9466 17.1988C28.5049 18.7559 29.4681 20.6259 29.8674 22.7855C30.1806 24.4756 29.9222 26.0484 28.9199 27.4646C27.3772 29.6321 24.6052 30.5162 22.0837 29.6712C21.9897 29.6399 21.8252 29.6086 21.7783 29.6634C21.5042 29.945 21.1753 29.992 20.8151 29.992C14.2999 29.9842 7.78473 29.9842 1.26956 29.9998C0.682251 29.9998 0.25156 29.8355 0.000976562 29.2878ZM18.0038 9.65583C18.0038 9.54628 18.0038 9.44456 18.0038 9.33502C18.0038 9.22547 18.0117 9.12375 18.0038 9.01421C17.9882 8.71687 17.7846 8.50561 17.5105 8.50561C17.2364 8.50561 17.025 8.71687 17.0093 9.01421C17.0015 9.16288 17.0093 9.30372 17.0093 9.45239C17.0015 9.78102 16.8057 9.99229 16.5238 10.0001C16.2341 10.0079 16.0227 9.78102 16.0148 9.44456C16.007 9.16288 16.0148 8.88119 16.0148 8.59168C16.0148 8.2474 15.8974 8.11438 15.5607 8.07526C15.2709 8.03613 14.9812 8.01266 14.6914 7.96571C13.4777 7.77792 12.3344 7.44146 11.3634 6.63553C11.1206 6.43209 10.9562 6.43991 10.6899 6.67465C10.1261 7.15978 9.47617 7.50406 8.75574 7.66838C8.03532 7.83269 7.29923 7.92659 6.56314 8.03613C6.12462 8.09873 6.01499 8.20045 6.01499 8.6308C6.01499 8.91249 6.02282 9.19418 6.00715 9.48369C5.99932 9.78885 5.79572 10.0001 5.52165 10.0001C5.24757 10.0079 5.03614 9.8045 5.01265 9.49934C4.99699 9.33502 5.01265 9.1707 5.00482 8.99856C4.98916 8.70905 4.79339 8.51343 4.52714 8.49778C4.27656 8.48996 4.02598 8.66993 4.01815 8.92814C3.99465 9.79667 3.94767 10.6652 4.30788 11.4946C4.47233 11.8624 4.70725 12.1284 5.10662 12.2458C5.49816 12.371 5.71742 12.6448 5.77223 13.0517C5.80355 13.2864 5.82705 13.5134 5.8662 13.7481C6.33605 16.385 8.93585 18.302 11.5983 17.9577C14.1276 17.6369 15.9835 15.7199 16.2263 13.1534C16.2733 12.684 16.4847 12.371 16.9389 12.2223C17.2834 12.1128 17.5105 11.878 17.6671 11.5494C17.949 10.9547 18.0117 10.3131 18.0038 9.65583ZM24.104 16.9953C23.0155 16.9327 22.7258 17.144 21.9192 17.7543C21.9036 17.77 21.8879 17.7778 21.8722 17.7934C20.7055 18.8341 19.9694 20.1486 19.4604 21.6118C19.108 22.6369 18.8966 23.6854 19.0532 24.773C19.3586 26.8465 20.956 28.4818 23.0703 28.9044C25.0907 29.3113 27.2363 28.3645 28.3013 26.5883C29.0452 25.3442 29.1548 24.014 28.8338 22.6369C28.4031 20.7824 27.6043 19.1236 26.1791 17.8247C25.584 17.2692 24.9106 16.8466 24.104 16.9953ZM18.0038 7.48059C18.0038 7.23802 17.996 6.94851 18.0038 6.65118C18.0587 5.34447 17.393 4.48376 16.2733 3.91256C15.6076 3.56828 14.8872 3.47438 14.1433 3.49786C13.9162 3.50568 13.6969 3.51351 13.4698 3.49003C13.1801 3.46656 13 3.24747 13.0078 2.98143C13.0157 2.70757 13.2036 2.51978 13.5012 2.50413C13.6656 2.49631 13.8301 2.48848 14.0023 2.50413C14.1824 2.51978 14.2921 2.45718 14.386 2.30852C14.6053 1.97206 14.8402 1.65125 15.0595 1.31479C15.1065 1.24437 15.1221 1.15047 15.1535 1.0644C15.0595 1.04093 14.9734 1.00181 14.8794 1.00181C13.2428 1.00181 11.5983 0.993982 9.96168 1.00181C7.39319 1.01746 5.14577 2.64498 4.31571 5.07843C4.04164 5.87654 3.96333 6.70595 4.01032 7.48841C4.44101 7.53536 4.84037 7.57448 5.28673 7.6136C5.67043 7.20672 5.87403 7.105 6.44568 7.04241C6.68843 7.01893 6.93118 6.99546 7.17393 6.96416C8.27024 6.82332 9.31173 6.55728 10.1809 5.79829C10.6664 5.37576 11.3869 5.37576 11.888 5.78264C12.7573 6.50251 13.7752 6.80767 14.8637 6.97199C15.5528 7.08153 16.3202 6.97981 16.7196 7.60578C17.1816 7.56666 17.5653 7.52753 18.0038 7.48059ZM5.97583 21.0093C5.92102 21.0015 5.88969 20.9937 5.8662 20.9937C3.47783 21.0093 1.29305 22.9264 1.06596 25.2894C0.956327 26.4474 1.01897 27.629 0.99548 28.7948C0.99548 28.8496 1.00331 28.9044 1.01114 28.9591C3.20375 28.9591 5.38069 28.9591 7.55764 28.9591C6.15594 26.4787 6.10112 23.748 5.97583 21.0093ZM14.3469 28.9748C16.4377 28.9748 18.505 28.9748 20.6193 28.9748C18.0743 27.0421 17.534 24.5382 18.411 21.6118C17.6515 21.205 16.8684 20.9859 16.007 21.0093C16.007 21.2363 16.0148 21.4319 16.007 21.6275C15.8974 24.1627 15.7016 26.69 14.3469 28.9748ZM9.59363 28.9748C10.5568 28.9748 11.473 28.9748 12.4127 28.9748C12.1386 27.3551 11.8724 25.7432 11.5983 24.147C11.5905 24.0922 11.4887 24.0062 11.4339 24.0062C11.105 23.9905 10.7761 23.9983 10.4315 23.9983C10.1496 25.665 9.87554 27.3082 9.59363 28.9748ZM9.11596 23.2707C8.90453 23.4897 8.64611 23.4506 8.3877 23.3254C7.94135 23.1142 7.50283 22.8872 7.01732 22.6447C7.11912 23.5054 7.20526 24.3583 7.33838 25.2112C7.50282 26.2127 7.72992 27.1986 8.23108 28.0984C8.33288 28.2784 8.46601 28.4349 8.60696 28.6305C8.64611 28.5366 8.66177 28.5131 8.66961 28.4897C8.91236 27.0421 9.14728 25.5867 9.39003 24.1392C9.44485 23.8106 9.52316 23.4976 9.11596 23.2707ZM13.3446 28.4897C13.3759 28.4897 13.4072 28.4897 13.4385 28.4975C14.5975 26.7213 14.7463 24.6869 14.9577 22.676C14.4878 22.9029 14.0572 23.122 13.6186 23.3333C13.3524 23.4584 13.094 23.4819 12.8669 23.2628C12.6241 23.4663 12.5145 23.6697 12.585 24.0062C12.7573 24.8747 12.8825 25.7511 13.0235 26.6274C13.1331 27.2456 13.2428 27.8715 13.3446 28.4897ZM21.559 12.5118C21.5668 12.5666 21.5668 12.5979 21.5747 12.6214C22.0523 13.7012 22.53 14.7731 23.0155 15.8451C23.0468 15.9155 23.1721 15.9859 23.2583 15.9859C23.7594 16.0016 24.2528 15.9859 24.7539 15.9938C24.9027 15.9938 24.981 15.9468 25.0359 15.806C25.2786 15.2191 25.537 14.6401 25.7798 14.0611C25.8581 13.8889 25.9207 13.709 25.999 13.5055C25.3413 13.5055 24.7226 13.5055 24.0727 13.5055C24.104 13.6307 24.1353 13.7325 24.151 13.8342C24.2215 14.1315 24.0883 14.3897 23.8299 14.468C23.5558 14.5462 23.3131 14.421 23.2035 14.1315C23.1095 13.8889 23.039 13.6307 22.9529 13.3882C22.8511 13.0987 22.8198 12.6918 22.6083 12.5509C22.3812 12.4023 21.9897 12.504 21.6686 12.4962C21.6373 12.4883 21.606 12.504 21.559 12.5118ZM8.9985 18.6933C9.02199 18.9671 8.975 19.2566 9.06897 19.4992C9.26474 20 10.5803 20.6651 11.1206 20.5555C11.6609 20.446 12.1543 20.2347 12.6085 19.8982C13.0392 19.5774 13.0705 19.1627 12.9922 18.6854C11.1206 19.0532 11.1206 19.0532 8.9985 18.6933ZM9.32739 21.1032C9.06897 20.8841 8.74791 20.6572 8.47384 20.3834C8.10579 20.0156 8.05098 19.9843 7.5733 20.2112C7.46367 20.266 7.35404 20.3442 7.24441 20.399C7.00166 20.532 6.97817 20.7198 7.07213 20.9624C7.31489 21.6197 7.83172 21.9639 8.37204 22.2378C8.72442 21.8388 9.03765 21.4632 9.32739 21.1032ZM12.7024 21.1267C12.9765 21.4553 13.2897 21.8387 13.6343 22.2456C14.112 22.0109 14.6053 21.7057 14.8481 21.158C15.1065 20.5868 15.0517 20.6025 14.6053 20.3208C14.4095 20.1956 14.1746 20.1408 13.9554 20.0704C13.9005 20.0547 13.8066 20.086 13.7596 20.1252C13.3837 20.4616 13.0313 20.8137 12.7024 21.1267ZM9.69543 22.2143C10.0478 23.2628 10.9014 23.0281 11.614 22.9577C11.8959 22.9342 12.1386 22.5195 12.397 22.2848C11.567 21.4006 10.3767 21.4084 9.69543 22.2143Z" fill="#212C66"/>
<path d="M24.0257 25.9937C23.7829 25.9703 23.5871 25.8607 23.5402 25.6103C23.5088 25.4304 23.407 25.3678 23.2739 25.2739C23.086 25.1487 22.9059 24.9844 22.7649 24.8044C22.5848 24.5697 22.6396 24.2645 22.8667 24.108C23.0781 23.9515 23.3522 23.9906 23.548 24.2019C23.5871 24.2488 23.6185 24.2958 23.6576 24.3349C23.8221 24.4914 24.01 24.5384 24.2214 24.4366C24.4407 24.3349 24.5347 24.1471 24.5033 23.9124C24.472 23.6855 24.3232 23.5525 24.104 23.5055C23.9552 23.4742 23.7907 23.4742 23.642 23.4429C23.0468 23.2942 22.6161 22.8091 22.53 22.1831C22.4517 21.612 22.7492 20.9938 23.2739 20.7043C23.4149 20.6261 23.5167 20.5556 23.548 20.3757C23.5871 20.1253 23.7829 19.9923 24.0335 20.0001C24.2841 20.0079 24.4329 20.1566 24.5112 20.3991C24.5425 20.5009 24.6286 20.5948 24.7069 20.673C24.8792 20.8373 25.0985 20.9703 25.2473 21.1503C25.4509 21.4007 25.4039 21.698 25.1689 21.8702C24.9497 22.0345 24.6756 21.9875 24.4642 21.7606C24.4015 21.6902 24.3311 21.5807 24.2527 21.565C24.0805 21.5415 23.8534 21.5102 23.7438 21.6041C23.6185 21.698 23.5167 21.9484 23.5558 22.0971C23.5871 22.2457 23.7907 22.3788 23.9395 22.4727C24.0257 22.5274 24.1666 22.4961 24.2841 22.5118C24.9262 22.637 25.4117 23.1299 25.4978 23.7402C25.5918 24.3975 25.2942 24.9765 24.7148 25.313C24.6208 25.3678 24.5425 25.4773 24.5112 25.5869C24.4329 25.8294 24.2762 25.9546 24.0257 25.9937Z" fill="#212C66"/>
</svg>
