<svg width="29" height="35" viewBox="0 0 29 35" fill="none" xmlns="http://www.w3.org/2000/svg">
<path d="M5.65899 22.2459C4.82461 21.7408 4.17208 21.12 3.84047 20.2781C3.60513 19.6783 3.43398 19.0258 3.39119 18.3839C3.31631 17.1632 3.38049 15.9426 3.3591 14.7219C3.3591 14.5535 3.26282 14.343 3.14515 14.2168C2.73866 13.7537 2.50332 13.2276 2.49263 12.6067C2.48193 12.27 2.48193 11.9227 2.49263 11.586C2.51402 11.123 2.70657 10.7336 3.12376 10.5126C3.3377 10.3969 3.36979 10.2495 3.36979 10.0391C3.3591 8.96571 3.3377 7.89235 3.66931 6.84004C4.17208 5.20895 5.13482 3.9146 6.53615 2.92543C6.68591 2.82019 6.81428 2.65182 6.86776 2.47293C7.31705 1.10492 8.237 0.210453 9.69181 0.084175C11.029 -0.0315797 12.3875 -0.0210566 13.7246 0.0946981C15.0939 0.220976 15.9817 1.07335 16.4203 2.35718C16.5166 2.65182 16.6664 2.84124 16.9124 3.02013C18.8165 4.40919 19.8434 6.27179 19.9504 8.60793C19.9718 9.10252 19.9397 9.60763 19.9718 10.1022C19.9825 10.2285 20.0681 10.3969 20.175 10.4705C20.6029 10.7652 20.8383 11.144 20.8276 11.6596C20.8276 11.9753 20.8276 12.291 20.8276 12.6067C20.8276 13.2276 20.5815 13.7432 20.1857 14.2168C20.0681 14.3641 19.9718 14.5746 19.9718 14.764C19.9504 15.8584 19.9397 16.9423 19.9611 18.0367C19.9932 19.794 19.3193 21.1726 17.8324 22.1512C17.7896 22.1828 17.7361 22.2038 17.6398 22.2459C19.3193 22.8984 20.6029 23.8981 21.6084 25.2556C21.7261 25.4134 22.0898 25.3818 22.4 25.4555C22.4 25.2029 22.4 25.0556 22.4 24.8978C22.4 22.4564 22.3893 20.015 22.4 17.5737C22.4 16.4792 23.4377 15.7531 24.4646 16.0899C25.1278 16.3109 25.5236 16.8896 25.5236 17.6368C25.5236 20.0676 25.5236 22.4985 25.5236 24.9188C25.5236 25.0556 25.5236 25.2029 25.5236 25.3187C25.5664 25.3503 25.5771 25.3608 25.5878 25.3608C27.3956 25.5607 28.0267 26.2342 28.0588 28.0442C28.1016 30.0857 28.4011 32.0956 28.9039 34.074C29.0751 34.7474 28.8932 34.9895 28.1979 34.9895C19.0411 34.9895 9.89506 34.9895 0.738292 34.9895C0.0964622 34.9895 -0.0746923 34.8316 -0.0319037 34.1897C0.107159 32.2429 0.128554 30.2646 0.449468 28.3494C0.920144 25.5081 2.65308 23.5192 5.33807 22.3617C5.44504 22.3406 5.51992 22.3091 5.65899 22.2459ZM5.68038 11.4071C5.68038 12.6909 5.57341 13.9432 5.70177 15.1849C5.9906 17.942 8.40816 20.2255 11.1145 20.4149C14.0883 20.6254 16.6878 18.868 17.4793 16.0794C17.6077 15.6269 17.6826 15.1533 17.704 14.6903C17.7361 13.6064 17.7147 12.5225 17.7147 11.4071C15.5753 11.2703 14.0456 10.1759 12.8903 8.5027C10.9006 10.5547 8.36537 11.2177 5.68038 11.4071ZM4.53578 10.3653C5.49853 10.2706 6.45058 10.239 7.37053 10.0812C9.40299 9.7339 11.1894 8.93414 12.4624 7.25044C12.7726 6.85056 13.1791 6.89265 13.4786 7.31358C13.8744 7.87131 14.2488 8.45008 14.7195 8.94467C15.8213 10.1127 17.244 10.4179 18.8058 10.2811C19.0518 7.85026 18.5277 5.73511 16.5166 4.10402C16.1957 4.7775 15.6929 5.09319 14.9655 5.01953C12.7726 4.80907 10.569 4.80907 8.37606 5.01953C7.74493 5.08267 7.25286 4.86169 6.93195 4.31448C6.89986 4.25134 6.85707 4.19873 6.80358 4.11454C4.81391 5.73511 4.28975 7.86078 4.53578 10.3653ZM6.50406 23.1404C6.22593 23.2351 6.02269 23.3298 5.80875 23.3824C5.41295 23.4877 5.29528 23.7086 5.30598 24.1191C5.32737 27.2129 5.31668 30.3172 5.31668 33.411C5.31668 33.5583 5.31668 33.7162 5.31668 33.8635C6.09757 33.8635 6.81428 33.8635 7.55238 33.8635C7.55238 33.3268 7.55238 32.8217 7.55238 32.3061C7.55238 31.7062 7.73423 31.5168 8.33328 31.5168C10.5583 31.5168 12.794 31.5168 15.019 31.5168C15.6073 31.5168 15.7892 31.6957 15.7892 32.264C15.7892 32.8007 15.7892 33.3268 15.7892 33.853C16.5594 33.853 17.2761 33.853 18.0249 33.853C18.0249 33.6846 18.0249 33.5478 18.0249 33.411C18.0249 32.064 18.0249 30.7065 18.0249 29.3596C18.0249 27.5496 18.0249 25.7396 18.0142 23.9296C18.0142 23.7928 17.9607 23.5929 17.8644 23.5403C17.5542 23.3719 17.2119 23.2667 16.8268 23.1088C16.8268 23.3193 16.8268 23.4666 16.8268 23.6034C16.8268 24.8241 16.8268 26.0448 16.8268 27.2655C16.8268 28.3388 16.2385 28.9071 15.1474 28.9176C12.8475 28.9176 10.5583 28.9176 8.2584 28.9176C7.07101 28.9176 6.50406 28.3599 6.50406 27.1708C6.50406 25.8554 6.50406 24.5295 6.50406 23.1404ZM24.9674 33.874C24.9674 33.6846 24.9674 33.5373 24.9674 33.3794C24.9674 32.6007 24.9674 31.8325 24.9674 31.0538C24.9674 30.7171 25.1385 30.5066 25.4915 30.4856C25.8231 30.4645 26.0585 30.675 26.0692 31.0433C26.0906 31.5168 26.0799 31.9904 26.0799 32.4639C26.0799 32.9269 26.0799 33.4005 26.0799 33.8635C26.6575 33.8635 27.1817 33.8635 27.6844 33.8635C27.524 32.8954 27.3314 31.9483 27.2138 31.0012C27.0854 30.0541 27.0319 29.107 26.9356 28.1494C24.9567 28.1494 22.9884 28.1494 21.0843 28.1494C20.8276 30.0646 20.5815 31.9588 20.3355 33.853C21.1057 33.853 21.9294 33.853 22.7851 33.853C22.7851 33.4426 22.7744 33.0637 22.7851 32.6744C22.7958 32.2429 22.9991 31.9904 23.3414 31.9904C23.6837 31.9904 23.8976 32.2324 23.9083 32.6638C23.919 33.0532 23.9083 33.4426 23.9083 33.8635C24.272 33.874 24.5823 33.874 24.9674 33.874ZM4.16138 33.874C4.16138 30.6855 4.16138 27.5286 4.16138 24.3295C2.82424 25.3924 1.90428 26.6867 1.63685 28.2862C1.39082 29.8121 1.34803 31.359 1.21966 32.9059C1.18757 33.2216 1.17688 33.5478 1.15548 33.8845C2.18241 33.874 3.15585 33.874 4.16138 33.874ZM11.6708 26.6657C12.5052 26.0448 13.3609 26.0658 14.099 26.592C14.6767 26.4131 15.1581 26.2658 15.6822 26.1079C15.6822 25.0977 15.6822 24.0243 15.6822 22.8878C15.2864 22.8668 14.8906 22.8563 14.5162 22.8352C13.9279 24.3611 12.9972 25.0977 11.6922 25.1187C10.3764 25.1293 9.43508 24.4032 8.80395 22.8352C8.42955 22.8563 8.03375 22.8773 7.61657 22.8984C7.61657 23.4877 7.61657 24.0243 7.61657 24.561C7.61657 25.1082 7.61657 25.6554 7.61657 26.0553C8.14073 26.2447 8.56861 26.4131 8.9965 26.5604C9.08208 26.592 9.21044 26.6025 9.27463 26.5604C10.0983 26.0448 10.8899 26.1079 11.6708 26.6657ZM4.49299 15.1323C4.49299 15.9531 4.4823 16.7844 4.49299 17.6052C4.50369 18.0893 4.4823 18.5839 4.57857 19.0574C4.94228 20.7937 6.67522 22.0881 8.77186 21.6777C8.93232 21.1515 8.72907 20.8674 8.237 20.6043C7.67005 20.2991 7.14589 19.8887 6.68591 19.4468C5.43434 18.2787 4.76042 16.816 4.49299 15.1323ZM14.5911 21.7513C14.8692 21.7513 15.1688 21.7619 15.4576 21.7513C17.0622 21.7092 18.4314 20.6148 18.763 19.0679C18.8379 18.6996 18.8379 18.3103 18.8486 17.9314C18.8593 17.1001 18.8486 16.2688 18.8486 15.4375C18.7737 15.469 18.763 15.5006 18.7523 15.5427C18.3458 17.8262 17.1156 19.5415 15.0618 20.678C14.4734 21.0147 14.4627 21.0252 14.5911 21.7513ZM9.92715 21.3199C9.92715 21.6987 9.91646 22.0249 9.92715 22.3512C9.94855 23.2141 10.5797 23.8875 11.4568 24.0138C12.2484 24.1296 13.1042 23.635 13.3075 22.8458C13.4358 22.3827 13.4037 21.8776 13.4465 21.3304C12.2377 21.583 11.1145 21.5935 9.92715 21.3199ZM14.6446 32.6533C12.6442 32.6533 10.676 32.6533 8.70768 32.6533C8.70768 33.0743 8.70768 33.4741 8.70768 33.874C10.708 33.874 12.6656 33.874 14.6446 33.874C14.6446 33.4636 14.6446 33.0743 14.6446 32.6533ZM15.2543 2.42031C14.8585 1.70474 14.3558 1.29434 13.6605 1.18911C13.1149 1.10492 12.548 1.10492 11.9917 1.10492C11.2215 1.10492 10.4406 1.10492 9.68112 1.19963C8.9858 1.28381 8.49373 1.72579 8.09794 2.42031C10.5155 2.06253 12.8368 2.052 15.2543 2.42031ZM19.1695 33.2952C19.6081 31.5589 19.8541 29.8121 19.8648 28.0337C19.8755 27.2129 20.0039 26.4657 20.7313 25.8659C20.2285 25.3397 19.7364 24.8346 19.2551 24.3295C19.223 24.3506 19.2016 24.3716 19.1695 24.3927C19.1695 27.3602 19.1695 30.3277 19.1695 33.2952ZM24.4325 21.804C24.4325 20.4254 24.4325 19.0574 24.4325 17.6999C24.4325 17.3842 24.3469 17.1422 23.9939 17.1106C23.7051 17.0791 23.5339 17.3106 23.5339 17.7105C23.5339 18.8785 23.5339 20.0361 23.5339 21.2041C23.5339 21.3936 23.5339 21.5935 23.5339 21.804C23.8442 21.804 24.1116 21.804 24.4325 21.804ZM7.93748 3.58838C7.91609 3.63048 7.884 3.67257 7.8626 3.71466C8.00166 3.7778 8.14073 3.9146 8.26909 3.90408C10.5369 3.69362 12.794 3.69362 15.0511 3.9146C15.2864 3.93565 15.4469 3.87251 15.4362 3.59891C13.8209 3.13589 10.002 3.12537 7.93748 3.58838ZM21.202 26.9919C23.0847 26.9919 24.9032 26.9919 26.7645 26.9919C26.5184 26.6341 26.1868 26.4973 25.8124 26.4868C24.5823 26.4762 23.3628 26.4762 22.1326 26.4868C21.7689 26.4973 21.448 26.6341 21.202 26.9919ZM18.87 13.6906C19.362 13.5538 19.6616 13.2381 19.7151 12.7961C19.7364 12.5541 19.7257 12.3016 19.7257 12.049C19.7257 11.365 19.7257 11.365 19.0411 11.4071C18.9876 11.4071 18.9342 11.4281 18.87 11.4387C18.87 12.1858 18.87 12.9329 18.87 13.6906ZM4.4609 13.7222C4.4609 12.9224 4.4609 12.1753 4.4609 11.4071C4.24696 11.4071 4.05441 11.3755 3.87256 11.4176C3.77629 11.4387 3.62652 11.5649 3.62652 11.6491C3.60513 12.0385 3.58374 12.4384 3.63722 12.8277C3.70141 13.2697 3.99023 13.5643 4.4609 13.7222ZM23.566 24.6978C23.566 24.9293 23.566 25.1503 23.566 25.3608C23.8656 25.3608 24.133 25.3608 24.4004 25.3608C24.4004 25.1188 24.4004 24.9083 24.4004 24.6978C24.1116 24.6978 23.8442 24.6978 23.566 24.6978ZM24.4004 23.5508C24.4004 23.3193 24.4004 23.1299 24.4004 22.9405C24.1009 22.9405 23.8442 22.9405 23.5553 22.9405C23.5553 23.1509 23.5553 23.3403 23.5553 23.5508C23.8549 23.5508 24.1223 23.5508 24.4004 23.5508ZM11.1145 27.8127C10.9327 27.4549 10.6973 27.297 10.355 27.3286C10.0662 27.3602 9.83088 27.4759 9.756 27.8127C10.1946 27.8127 10.6118 27.8127 11.1145 27.8127ZM13.6177 27.8022C13.4679 27.4759 13.254 27.3286 12.9224 27.3286C12.6014 27.3286 12.3768 27.4759 12.2484 27.8022C12.7191 27.8022 13.147 27.8022 13.6177 27.8022ZM14.8158 27.7916C15.5325 27.8863 15.7143 27.7916 15.6394 27.3602C15.1367 27.297 14.9655 27.3812 14.8158 27.7916ZM8.53652 27.7811C8.33328 27.3497 8.09794 27.255 7.64866 27.4023C7.73423 27.8337 7.8733 27.8969 8.53652 27.7811Z" fill="#212C66"/>
<path d="M11.6815 18.3419C10.5476 18.3419 9.49923 17.6368 9.09274 16.6055C8.94298 16.2162 9.03925 15.9005 9.34947 15.7742C9.67039 15.6479 9.94851 15.7847 10.1304 16.1846C10.4299 16.8476 10.954 17.2264 11.6815 17.2264C12.4196 17.2264 12.9437 16.8581 13.2432 16.1951C13.4251 15.7953 13.7032 15.6585 14.0241 15.7847C14.345 15.911 14.4413 16.2372 14.2702 16.6582C13.8316 17.6579 12.794 18.3419 11.6815 18.3419Z" fill="#212C66"/>
<path d="M15.2331 12.8908C15.2331 13.0486 15.2545 13.2065 15.2331 13.3643C15.1903 13.659 14.9978 13.8379 14.709 13.8589C14.4094 13.8905 14.1527 13.7432 14.1099 13.4485C14.0564 13.0697 14.0564 12.6698 14.0992 12.2804C14.1313 11.9858 14.388 11.8385 14.6876 11.8595C15.0085 11.8806 15.201 12.0595 15.2331 12.3752C15.2438 12.5541 15.2331 12.7224 15.2331 12.8908Z" fill="#212C66"/>
<path d="M8.10888 12.8908C8.10888 12.733 8.08748 12.5751 8.10888 12.4173C8.15167 12.0911 8.34422 11.8911 8.69722 11.8911C9.03953 11.8911 9.25347 12.0911 9.28557 12.4173C9.31766 12.7119 9.30696 13.0171 9.28557 13.3223C9.26417 13.659 8.99674 13.8905 8.67583 13.88C8.35491 13.8695 8.13027 13.638 8.09818 13.2907C8.08748 13.1539 8.09818 13.0171 8.10888 12.8908C8.09818 12.8908 8.09818 12.8908 8.10888 12.8908Z" fill="#212C66"/>
</svg>
