<svg width="30" height="30" viewBox="0 0 30 30" fill="none" xmlns="http://www.w3.org/2000/svg">
<path d="M14.4998 18.4237C14.4998 16.4471 14.4998 14.5121 14.4915 12.5772C14.4915 12.5021 14.4165 12.3854 14.3415 12.352C13.7581 12.0267 13.4748 11.5347 13.4998 10.8674C13.5165 10.3337 13.5498 9.79989 13.5831 9.24109C13.1081 9.17437 12.5415 9.11599 11.9831 8.99922C11.2998 8.8491 10.6165 8.64893 9.94147 8.44876C9.75814 8.39872 9.58314 8.28196 9.4248 8.16519C8.83314 7.74818 8.83314 7.09764 9.4748 6.76403C9.96647 6.50548 10.5081 6.32199 11.0498 6.19689C11.8498 6.0134 12.6581 5.90498 13.4998 5.76319C13.6248 3.88663 14.4081 2.327 15.9415 1.18438C17.0831 0.333667 18.3831 -0.0499858 19.8081 0.0250768C22.8498 0.183542 25.3248 2.58554 25.4998 5.77987C26.1165 5.87162 26.7498 5.93834 27.3581 6.07178C27.9915 6.21357 28.6165 6.41373 29.2415 6.60556C29.4081 6.6556 29.5581 6.76403 29.6915 6.88079C30.0748 7.19772 30.1165 7.71482 29.7165 8.01507C29.3748 8.27362 28.9831 8.50715 28.5748 8.61557C27.6331 8.85744 26.6665 9.00756 25.7081 9.19105C25.5748 9.21607 25.4415 9.23275 25.2998 9.25777C25.5998 9.89997 25.4998 10.5505 25.4665 11.1844C25.4415 11.6931 25.1415 12.0684 24.6998 12.327C24.6081 12.377 24.4998 12.4938 24.4998 12.5855C24.4915 14.5205 24.4915 16.4554 24.4915 18.4154C24.6581 18.4654 24.8248 18.5071 24.9915 18.5572C27.3248 19.2244 28.9581 21.3595 28.9831 23.7865C28.9915 25.146 28.9831 26.5138 28.9831 27.8733C28.9831 28.2569 28.8748 28.4154 28.5081 28.4905C26.2165 28.9825 23.9165 29.4746 21.6248 29.9667C21.5248 29.9917 21.4165 29.9834 21.3165 29.9834C20.7581 29.9834 20.1915 29.9584 19.6331 29.9917C18.1748 30.0668 16.7581 29.8833 15.3415 29.5413C13.8081 29.1744 12.2581 28.8741 10.7081 28.5488C10.3748 28.4821 10.0498 28.4071 9.99147 28.0067C9.82481 28.0067 9.68314 28.0067 9.50814 28.0067C9.54147 28.6239 9.49147 29.2077 8.9748 29.6331C8.68314 29.875 8.3498 30.0001 7.96647 29.9917C7.0498 29.975 6.60814 29.3912 6.48314 28.0151C5.83314 28.0151 5.19147 28.0151 4.50814 28.0151C4.5498 28.6406 4.48314 29.2244 3.95814 29.6498C3.66647 29.8916 3.32481 30.0001 2.94981 29.9917C2.04147 29.9584 1.5998 29.3579 1.4998 28.0151C1.3998 27.99 1.29147 27.9734 1.18314 27.9483C0.499805 27.7815 0.0248047 27.2144 0.0248047 26.5055C0.0164714 23.1694 0.0164714 19.8249 0.0248047 16.4888C0.0248047 15.6548 0.683138 15.0209 1.5248 15.0042C2.00814 14.9959 2.4998 15.0042 3.01647 15.0042C3.01647 14.8708 3.01647 14.754 3.01647 14.6456C3.01647 13.6114 3.00814 12.5855 3.01647 11.5513C3.02481 10.6589 3.65814 10.0167 4.5498 10.0084C5.19147 10.0001 5.84147 10.0001 6.48314 10.0084C7.35814 10.0167 7.9998 10.6589 8.00814 11.5263C8.01647 12.6689 8.00814 13.8116 8.00814 15.0042C8.45814 15.0042 8.89147 15.0042 9.32481 15.0042C10.4081 15.0042 11.0081 15.6047 11.0081 16.6806C11.0081 17.9817 11.0081 19.2745 11.0081 20.6756C11.9248 19.4496 13.0665 18.7157 14.4998 18.4237ZM15.5581 19.2745C15.2498 19.3245 14.9415 19.3745 14.6331 19.4079C14.4581 19.4246 14.3915 19.5163 14.3665 19.6831C14.2581 20.2669 14.1415 20.8424 14.0165 21.4262C13.7581 22.6606 13.5165 23.895 13.7498 25.1627C13.9165 26.0634 14.1248 26.9559 14.2665 27.8566C14.3248 28.1986 14.4665 28.3153 14.7998 28.3987C16.5665 28.8324 18.3415 29.0993 20.1665 28.9825C20.5081 28.9575 20.8498 28.9825 21.1915 28.9742C21.3331 28.9742 21.4831 28.9575 21.6248 28.9242C22.5331 28.7323 23.4331 28.5322 24.3415 28.357C24.5498 28.3153 24.6331 28.2236 24.6748 28.0234C24.7831 27.4229 24.8998 26.8224 25.0331 26.2219C25.2831 25.0793 25.4415 23.9283 25.2248 22.7607C25.0665 21.9267 24.8915 21.0926 24.7331 20.2503C24.5748 19.4079 24.5748 19.4079 23.7248 19.2995C23.6915 19.2995 23.6581 19.2995 23.6331 19.2911C23.4748 19.2578 23.4165 19.3162 23.3498 19.4746C23.0915 20.0751 22.8498 20.6923 22.5081 21.2344C21.8581 22.2519 20.9581 23.0443 19.9748 23.7448C19.5415 24.0534 19.4331 24.0534 19.0081 23.7365C17.4415 22.5939 16.0998 21.2678 15.5581 19.2745ZM7.01647 16.0134C5.9998 16.0134 5.01647 16.0134 4.02481 16.0134C4.02481 16.4638 4.02481 16.8891 4.02481 17.3145C4.02481 18.3904 3.4248 18.9909 2.34147 18.9909C1.90814 18.9909 1.4748 18.9909 1.0498 18.9909C1.0498 20.684 1.0498 22.327 1.0498 23.9867C1.56647 23.9867 2.0498 23.97 2.54147 23.9867C3.18314 24.0117 3.6498 24.3203 3.8998 24.9125C3.99147 25.1293 4.00814 25.3795 4.01647 25.6131C4.03314 26.0634 4.02481 26.5222 4.02481 26.9642C6.04147 26.9642 8.01647 26.9642 9.99981 26.9642C9.99981 24.3036 9.99981 21.6598 9.99981 18.9909C9.52481 18.9909 9.06647 18.9909 8.60814 18.9909C7.64981 18.9825 7.0248 18.357 7.01647 17.4146C7.01647 16.9559 7.01647 16.4971 7.01647 16.0134ZM17.3415 9.41624C16.9498 9.41624 16.5581 9.42458 16.1665 9.41624C15.7665 9.39956 15.3748 9.34951 14.9748 9.4913C14.6748 9.59972 14.5081 9.72483 14.5081 10.0501C14.4998 10.3503 14.5081 10.6506 14.5081 10.9508C14.5081 11.2594 14.6748 11.4346 14.9665 11.4846C15.3831 11.5597 15.4915 11.6848 15.5081 12.1018C15.5831 14.2619 17.3415 15.9717 19.4831 15.98C21.6498 15.9884 23.4165 14.2786 23.4915 12.1101C23.5081 11.6848 23.6165 11.5597 24.0248 11.4846C24.3248 11.4346 24.4831 11.2594 24.4915 10.9508C24.4998 10.6423 24.5248 10.3253 24.4831 10.0167C24.4581 9.84993 24.3581 9.63308 24.2248 9.56636C23.9998 9.4496 23.7165 9.37453 23.4581 9.37453C22.8581 9.37453 22.2581 9.42458 21.6581 9.4496C22.3581 9.82491 22.5915 10.1835 22.4665 10.7006C22.3581 11.1427 21.9748 11.4679 21.5331 11.4763C21.0831 11.493 20.6831 11.2011 20.5415 10.7674C20.3915 10.2753 20.5831 9.88329 21.1915 9.48296C20.0498 9.48296 18.9415 9.48296 17.8081 9.48296C18.4248 9.89997 18.6081 10.3003 18.4415 10.7924C18.2998 11.2261 17.8831 11.5013 17.4331 11.4763C16.9915 11.4513 16.6081 11.1093 16.5165 10.6673C16.4081 10.1835 16.6581 9.81657 17.3415 9.41624ZM14.9581 4.02007C17.4331 4.75402 22.4415 4.60389 24.0415 3.98671C23.3831 2.17687 21.2748 0.884126 19.1831 1.00923C17.3415 1.11765 15.2915 2.58554 14.9581 4.02007ZM20.9915 16.764C19.9831 17.0643 18.9998 17.0559 17.9998 16.764C17.9998 17.3312 17.9998 17.8566 17.9998 18.382C17.9998 18.7657 17.8581 18.9325 17.4831 18.9909C17.1915 19.0409 16.8998 19.0826 16.5748 19.1243C17.0498 20.7924 18.2165 21.8599 19.4998 22.8775C20.7915 21.8599 21.9498 20.784 22.4248 19.1493C22.3581 19.1243 22.3415 19.116 22.3248 19.1076C22.0665 19.0659 21.8081 19.0242 21.5581 18.9909C21.1415 18.9325 21.0081 18.774 21.0081 18.3487C20.9915 17.8399 20.9915 17.3228 20.9915 16.764ZM14.5748 4.97921C14.5498 5.39622 14.5331 5.76319 14.4998 6.12182C14.4748 6.34701 14.5665 6.45544 14.7748 6.49714C15.4665 6.63058 16.1581 6.79739 16.8581 6.87245C18.6165 7.06428 20.3915 7.06428 22.1498 6.87245C22.8498 6.79739 23.5415 6.63058 24.2248 6.4888C24.3248 6.47212 24.4748 6.34701 24.4748 6.28029C24.4748 5.86328 24.4415 5.44626 24.4165 4.98755C22.7498 5.37954 21.1331 5.52132 19.4915 5.52132C17.8581 5.51298 16.2415 5.3712 14.5748 4.97921ZM28.7498 7.58137C28.7498 7.55635 28.7415 7.52299 28.7415 7.49797C28.7081 7.48129 28.6831 7.44793 28.6415 7.43959C27.6081 7.23108 26.5665 7.02257 25.5331 6.82241C25.4748 6.81407 25.3831 6.83909 25.3415 6.88079C24.9665 7.31448 24.4498 7.50631 23.9165 7.59805C22.9665 7.75652 22.0081 7.8983 21.0415 7.95669C19.1581 8.07345 17.2748 8.03175 15.4165 7.68146C14.7915 7.56469 14.1748 7.42291 13.6831 6.96419C13.5915 6.88079 13.4331 6.82241 13.3165 6.83075C12.7581 6.89747 12.1998 6.97253 11.6498 7.08096C11.1665 7.1727 10.6998 7.31448 10.2248 7.43959C10.2248 7.47295 10.2248 7.49797 10.2331 7.53133C10.3331 7.57303 10.4331 7.62308 10.5415 7.6481C11.0665 7.7732 11.5915 7.94001 12.1248 7.99005C13.9331 8.17353 15.7415 8.38204 17.5581 8.4571C20.7915 8.59055 24.0248 8.48212 27.2248 7.93167C27.7415 7.84826 28.2498 7.69814 28.7498 7.58137ZM25.7748 19.9584C25.9581 21.3262 26.2915 22.6689 26.2915 24.0117C26.2915 25.3545 25.9498 26.689 25.7581 28.0568C26.4831 27.8983 27.2248 27.7398 27.9748 27.5814C27.9831 27.5063 27.9915 27.4563 27.9915 27.3979C27.9915 26.1719 28.0081 24.9458 27.9831 23.7198C27.9748 23.3111 27.8998 22.8858 27.7831 22.4938C27.4331 21.3929 26.7415 20.5422 25.7748 19.9584ZM13.2331 28.0484C13.0415 26.6639 12.7081 25.3212 12.7081 23.9784C12.7081 22.6356 13.0415 21.3011 13.2248 19.9834C12.2081 20.4421 11.1831 21.8266 11.0915 23.1277C10.9915 24.5872 11.0415 26.0551 11.0248 27.523C11.0248 27.5397 11.0415 27.5564 11.0581 27.5897C11.7831 27.7398 12.5165 27.8983 13.2331 28.0484ZM7.01647 14.9792C7.01647 13.8366 7.01647 12.719 7.01647 11.6097C7.01647 11.1677 6.84147 10.9925 6.38314 10.9925C5.7998 10.9925 5.21647 10.9925 4.64147 10.9925C4.1998 10.9925 4.02481 11.1677 4.02481 11.6181C4.02481 12.6606 4.02481 13.6948 4.02481 14.7373C4.02481 14.8124 4.04147 14.8958 4.0498 14.9792C5.03314 14.9792 6.00814 14.9792 7.01647 14.9792ZM1.0248 17.99C1.5498 17.99 2.03314 17.9984 2.5248 17.99C2.78314 17.9817 2.99147 17.8399 2.9998 17.5897C3.03314 17.0643 3.00814 16.5388 3.00814 15.9967C2.49147 15.9967 2.00814 15.9884 1.51647 15.9967C1.21647 16.0051 1.03314 16.1969 1.0248 16.4888C1.01647 16.9809 1.0248 17.4646 1.0248 17.99ZM10.0081 17.99C10.0081 17.4646 10.0165 16.9725 10.0081 16.4888C9.99981 16.2302 9.8498 16.0301 9.5998 16.0134C9.07481 15.98 8.5498 16.0051 8.01647 16.0051C8.01647 16.5305 8.00814 17.0142 8.01647 17.498C8.02481 17.7899 8.19981 17.9734 8.48314 17.9817C8.98314 17.9984 9.4748 17.99 10.0081 17.99ZM1.0248 24.9875C1.0248 25.5213 1.01647 26.0134 1.0248 26.5138C1.03314 26.7724 1.19147 26.9559 1.4498 26.9725C1.96647 26.9976 2.4748 26.9809 3.00814 26.9809C3.00814 26.4554 3.0248 25.955 2.9998 25.4629C2.99147 25.1794 2.7998 25.0042 2.51647 24.9959C2.04147 24.9792 1.55814 24.9875 1.0248 24.9875ZM23.4748 15.1293C23.0165 15.4963 22.5581 15.88 22.0915 16.2553C22.0415 16.297 21.9915 16.372 21.9915 16.4304C21.9831 16.9725 21.9831 17.5063 21.9831 18.0568C22.4915 18.1318 22.9665 18.1986 23.4665 18.2653C23.4748 17.1727 23.4748 16.1302 23.4748 15.1293ZM16.9998 18.0568C16.9998 17.5063 16.9998 16.9809 16.9998 16.4471C16.9998 16.3887 16.9665 16.3053 16.9165 16.2636C16.4498 15.88 15.9748 15.4963 15.5248 15.1293C15.5248 16.1302 15.5248 17.181 15.5248 18.2653C16.0165 18.1986 16.4998 18.1235 16.9998 18.0568ZM2.5248 27.99C2.54147 28.3403 2.40814 28.724 2.79147 28.8991C2.93314 28.9659 3.1748 28.9492 3.2998 28.8658C3.6248 28.6573 3.50814 28.307 3.4998 27.99C3.1748 27.99 2.86647 27.99 2.5248 27.99ZM8.50814 27.9984C8.1748 27.9984 7.85814 27.9984 7.51647 27.9984C7.5498 28.3237 7.39981 28.6823 7.7498 28.8825C7.89147 28.9575 8.14981 28.9659 8.29147 28.8825C8.62481 28.6823 8.4998 28.3237 8.50814 27.9984Z" fill="#212C66"/>
<path d="M4.73344 3.55302C4.54177 2.84409 4.36678 2.16853 4.18344 1.48463C4.15011 1.3762 4.11677 1.26778 4.09177 1.15101C4.03344 0.842424 4.15844 0.608896 4.45844 0.525493C5.07511 0.350347 5.70011 0.183542 6.32511 0.0250763C6.60011 -0.0499862 6.80844 0.0500972 6.95844 0.291965C7.39177 0.959188 7.85011 1.61807 8.27511 2.30197C8.41677 2.52716 8.55844 2.54384 8.77511 2.47712C9.31677 2.31865 9.85844 2.17687 10.4001 2.03508C11.3168 1.79322 12.1418 2.23525 12.3584 3.08596C12.5668 3.91999 12.0751 4.69564 11.1668 4.9375C8.07511 5.76319 4.97511 6.59722 1.88344 7.42291C1.30844 7.58137 1.13344 7.48129 0.983442 6.90581C0.666775 5.75485 0.366775 4.60389 0.0501084 3.44459C-0.0248916 3.1777 -0.0582249 2.9275 0.200108 2.73567C0.441775 2.55218 0.666775 2.66061 0.891775 2.79405C1.50011 3.15268 2.11678 3.49463 2.72511 3.86161C2.92511 3.98671 3.10844 4.01173 3.33344 3.93667C3.79177 3.79488 4.25011 3.68646 4.73344 3.55302ZM1.87511 6.38871C4.95844 5.56302 7.99177 4.74568 11.0251 3.92833C11.3251 3.84493 11.4584 3.57804 11.3751 3.29447C11.3001 3.04426 11.0418 2.90247 10.7501 2.9692C10.0084 3.16102 9.26677 3.36119 8.52511 3.56136C8.09177 3.67812 7.97511 3.62808 7.71677 3.25277C7.29177 2.60222 6.85844 1.935 6.41677 1.28446C6.35844 1.20106 6.22511 1.10931 6.14177 1.12599C5.82511 1.18438 5.52511 1.27612 5.20011 1.36786C5.21677 1.45961 5.22511 1.53467 5.25011 1.60139C5.43344 2.28529 5.61677 2.9692 5.79177 3.64476C5.90844 4.09513 5.80011 4.30364 5.34177 4.42875C4.63344 4.62057 3.92511 4.82908 3.20011 4.98755C3.00011 5.02925 2.75011 4.98755 2.55844 4.8958C2.15011 4.70398 1.76677 4.45377 1.29177 4.17854C1.50011 4.96252 1.68344 5.66311 1.87511 6.38871Z" fill="#212C66"/>
<path d="M3.04199 20C3.37533 20 3.67533 20 4.00033 20C4.00033 20.9842 4.00033 21.96 4.00033 22.9608C3.69199 22.9608 3.37533 22.9608 3.04199 22.9608C3.04199 21.9933 3.04199 21.0092 3.04199 20Z" fill="#212C66"/>
<path d="M5.99154 22.9692C5.66654 22.9692 5.3582 22.9692 5.0332 22.9692C5.0332 21.9851 5.0332 21.0093 5.0332 20.0084C5.34154 20.0084 5.6582 20.0084 5.99154 20.0084C5.99154 20.9842 5.99154 21.9684 5.99154 22.9692Z" fill="#212C66"/>
<path d="M7.99154 22.9692C7.6582 22.9692 7.34987 22.9692 7.0332 22.9692C7.0332 21.9851 7.0332 21.0093 7.0332 20.0084C7.34154 20.0084 7.6582 20.0084 7.99154 20.0084C7.99154 20.9842 7.99154 21.9684 7.99154 22.9692Z" fill="#212C66"/>
</svg>
