<?xml version="1.0" encoding="utf-8"?>
<!-- Generator: Adobe Illustrator 26.3.1, SVG Export Plug-In . SVG Version: 6.00 Build 0)  -->
<svg version="1.1" id="Layer_1" xmlns="http://www.w3.org/2000/svg" xmlns:xlink="http://www.w3.org/1999/xlink" x="0px" y="0px"
	 viewBox="0 0 100 100" style="enable-background:new 0 0 100 100;" xml:space="preserve">
<style type="text/css">
	.st0{fill:#212C66;}
</style>
<g>
	<path class="st0" d="M47.2,80.3c-12.4,0-24.9,0-37.3,0c-2.8,0-5-2.1-5-5c0-15.3,0-30.7,0-46c0-2.8,2.2-5,4.9-4.9
		c1,0,1.7-0.1,2.1-1.2c0.8-1.7,2.3-2.5,4.2-2.5c23.9,0,47.9,0,71.8,0c1,0,2.1,0,3.1,0c2.6,0,4.8,2.2,4.8,4.8c0,13.1,0,26.2,0,39.3
		c0,2.3,0,4.6,0,6.9c0,2.8-2.1,5-4.9,4.9c-1,0-1.7,0.1-2.2,1.2c-0.8,1.7-2.3,2.6-4.3,2.6C72.1,80.3,59.7,80.3,47.2,80.3z M13,68.7
		c27.1,0,54.1,0,81.1,0c0-13.5,0-26.9,0-40.3c-27.1,0-54.1,0-81.1,0C13,41.9,13,55.3,13,68.7z M87.5,76.5c-0.2,0-0.4,0-0.7,0
		c-12.6,0-25.3,0-37.9,0c-10.9,0-21.7,0-32.6,0c-0.6,0-1.2-0.1-1.8-0.3c-2.1-0.7-3.4-2.5-3.4-4.9c0-14.9,0-29.8,0-44.7
		c0-0.2,0-0.4,0-0.6c-0.4,0-0.8,0-1.2,0c-2.2,0-3.5,1.3-3.5,3.5c0,2.1,0,4.1,0,6.2c0,13.1,0,26.2,0,39.3c0,2.1,1.3,3.4,3.4,3.4
		c1.5,0,3.1,0,4.6,0c22.1,0,44.3,0,66.4,0c1.2,0,2.4,0,3.5,0C86,78.5,87.1,77.7,87.5,76.5z M94.3,26.6c-0.1-0.7-0.1-1.4-0.2-2
		c-0.4-1.5-1.6-2.3-3.3-2.3c-13.8,0-27.7,0-41.5,0c-10.9,0-21.8,0-32.7,0c-2.1,0-3.9,1.7-3.4,4.3C40.1,26.6,67.1,26.6,94.3,26.6z
		 M94.2,70.5c-27.1,0-54.1,0-81.2,0c0,0.4,0,0.8,0,1.1c0.1,1.8,1.4,3.1,3.2,3.1c0.5,0,0.9,0,1.4,0c17.9,0,35.8,0,53.7,0
		c6.5,0,13,0,19.5,0c1.8,0,3.1-1.2,3.3-2.9C94.2,71.4,94.2,71,94.2,70.5z"/>
	<path class="st0" d="M35,41.7c0,2.6,0,5.2,0,7.8c0,1.6-0.9,2.5-2.4,2.5c-4.7,0-9.4,0-14.1,0C17,52,16,51,16,49.5
		c0-5.2,0-10.5,0-15.7c0-1.5,0.9-2.5,2.5-2.5c4.7,0,9.4,0,14.2,0c1.5,0,2.4,0.9,2.4,2.4C35,36.4,35,39,35,41.7z M20,43.9
		c-0.1-0.8-0.1-1.6-0.1-2.4c0-0.8-0.1-1.6,0-2.4c0.1-0.7,0.3-1.5,0.7-2.1c1.2-2.2,3.8-3.2,6.4-2.7c2.5,0.6,4.3,2.5,4.3,4.8
		c0.1,1.6,0.2,3.2-0.2,4.8c0.8,0.3,1.5,0.7,2.3,1.1c0-0.2,0-0.4,0-0.5c0-3.5,0-7,0-10.5c0-0.8-0.1-0.9-0.9-0.9c-4.6,0-9.1,0-13.7,0
		c-0.8,0-0.9,0.1-0.9,0.9c0,3.5,0,6.9,0,10.4c0,0.2,0,0.4,0,0.6C18.6,44.6,19.3,44.2,20,43.9z M29.5,40.9
		C29.5,40.9,29.6,40.9,29.5,40.9c0-0.7,0-1.5-0.1-2.2c-0.4-1.9-2.6-3.1-4.7-2.7c-1.9,0.4-3.1,1.8-3.1,3.8c0,0.7,0,1.4,0,2.1
		c-0.1,1.9,1.2,3.5,3.1,3.9c2.3,0.5,5-1.2,4.8-3.8C29.5,41.6,29.5,41.3,29.5,40.9z M25.6,50.2c2.3,0,4.6,0,6.9,0c0,0,0,0,0.1,0
		c0.6,0,0.8-0.2,0.8-0.7c0-0.7,0-1.4,0-2.1c0-0.2-0.1-0.5-0.3-0.5c-0.8-0.4-1.6-0.8-2.4-1.2c-0.3-0.2-0.6-0.1-0.8,0.2
		c-2.5,2.5-6.2,2.4-8.6-0.1c-0.1-0.1-0.4-0.2-0.5-0.1c-0.9,0.4-1.7,0.8-2.5,1.3c-0.2,0.1-0.3,0.4-0.3,0.6c0,0.6,0,1.3,0,1.9
		c0,0.8,0.1,0.9,0.9,0.9C21,50.2,23.3,50.2,25.6,50.2z"/>
	<path class="st0" d="M57.2,37.5c5.3,0,10.6,0,15.9,0c0.4,0,0.8,0.1,1,0.5c0.3,0.6-0.1,1.3-0.9,1.3c-1.3,0-2.7,0-4,0
		c-9.3,0-18.6,0-27.9,0c-0.2,0-0.4,0-0.6,0c-0.5-0.1-0.7-0.4-0.7-0.8c0-0.4,0.3-0.8,0.7-0.9c0.2,0,0.4,0,0.6,0
		C46.7,37.5,52,37.5,57.2,37.5z"/>
	<path class="st0" d="M57.2,48.8c-5.3,0-10.6,0-15.9,0c-0.2,0-0.5,0-0.7-0.1c-0.4-0.2-0.5-0.5-0.4-0.9c0.1-0.5,0.4-0.7,0.9-0.7
		c1.3,0,2.6,0,3.9,0c9.4,0,18.8,0,28.2,0c0.2,0,0.3,0,0.5,0c0.4,0.1,0.7,0.4,0.7,0.8c0,0.4-0.3,0.8-0.7,0.9c-0.2,0-0.4,0-0.6,0
		C67.8,48.8,62.5,48.8,57.2,48.8z"/>
	<path class="st0" d="M78.3,34.5c-3.5,0-6.9,0-10.4,0c-0.2,0-0.4,0-0.6,0c-0.4-0.1-0.7-0.3-0.7-0.7s0.1-0.8,0.6-0.9
		c0.2-0.1,0.4-0.1,0.6-0.1c7,0,14,0,20.9,0c0.1,0,0.2,0,0.4,0c0.5,0,0.9,0.4,0.9,0.9s-0.4,0.8-0.9,0.8c-0.9,0-1.8,0-2.7,0
		C83.8,34.5,81.1,34.5,78.3,34.5z"/>
	<path class="st0" d="M51.8,34.5c-3.5,0-7.1,0-10.6,0c-0.3,0-0.7-0.1-0.9-0.3s-0.2-0.6-0.1-0.9c0.1-0.2,0.5-0.5,0.8-0.5
		c0.8-0.1,1.5,0,2.3,0c6.3,0,12.6,0,18.9,0c0.1,0,0.3,0,0.4,0c0.5,0,0.9,0.4,0.8,0.9c0,0.5-0.3,0.8-0.9,0.8c-1.4,0-2.9,0-4.3,0
		C56.1,34.5,54,34.5,51.8,34.5L51.8,34.5z"/>
	<path class="st0" d="M51.8,42.3c3.5,0,7,0,10.6,0c0.7,0,1,0.3,1.1,0.8s-0.3,0.9-0.8,1c-0.2,0-0.3,0-0.5,0c-7,0-13.9,0-20.9,0
		c-0.2,0-0.4,0-0.6,0c-0.4-0.1-0.6-0.4-0.7-0.9c0-0.4,0.3-0.8,0.7-0.8c0.2,0,0.3,0,0.5,0C44.9,42.3,48.3,42.3,51.8,42.3z"/>
	<path class="st0" d="M78.4,42.3c3.4,0,6.9,0,10.3,0c0.1,0,0.3,0,0.4,0c0.6,0,0.9,0.3,0.9,0.8S89.6,44,89.1,44c-1.5,0-3.1,0-4.6,0
		c-5.5,0-11,0-16.5,0c-0.2,0-0.4,0-0.6,0c-0.4-0.1-0.7-0.5-0.7-0.9s0.3-0.8,0.8-0.8c0.2,0,0.3,0,0.5,0
		C71.4,42.3,74.9,42.3,78.4,42.3z"/>
	<path class="st0" d="M83.8,39.3c-1.7,0-3.3,0-5,0c-0.1,0-0.3,0-0.4,0c-0.5,0-0.9-0.4-0.9-0.9s0.3-0.8,0.9-0.9c0.3,0,0.6,0,0.9,0
		c3.2,0,6.4,0,9.6,0c0.2,0,0.4,0,0.6,0.1c0.4,0.1,0.6,0.4,0.6,0.9c0,0.4-0.2,0.7-0.6,0.8c-0.2,0-0.4,0.1-0.5,0.1
		C87.2,39.3,85.5,39.3,83.8,39.3z"/>
	<path class="st0" d="M83.7,47.1c1.8,0,3.5,0,5.3,0c0.7,0,1.1,0.3,1.1,0.9c0,0.5-0.4,0.9-1,0.9c-3.5,0-7,0-10.5,0
		c-0.6,0-1-0.3-1-0.9c0-0.5,0.4-0.8,1-0.8C80.3,47.1,82,47.1,83.7,47.1z"/>
</g>
<g>
	<path class="st0" d="M26.7,65.1H25v-1.5l0,0c-0.7,1.1-1.7,1.7-3,1.7c-1.2,0-2.3-0.5-3.2-1.4s-1.3-2-1.3-3.3s0.5-2.5,1.4-3.4
		s2.1-1.4,3.5-1.4c1,0,1.9,0.3,2.7,0.8s1.4,1.3,1.6,2.2h-1.9c-0.2-0.4-0.6-0.8-1-1.1s-0.9-0.4-1.5-0.4c-0.9,0-1.6,0.3-2.2,0.9
		s-0.9,1.4-0.9,2.2c0,0.9,0.3,1.6,0.9,2.2s1.3,0.9,2.1,0.9c0.7,0,1.3-0.2,1.8-0.7s0.9-1,1-1.7h-2.7v-1.5h4.4
		C26.7,59.6,26.7,65.1,26.7,65.1z"/>
	<path class="st0" d="M35.3,59.2c0,0.6-0.2,1.2-0.5,1.7S34,61.8,33.4,62l1.6,3.1h-1.9l-1.4-2.9h-1.8v2.9h-1.7v-9h4
		c0.9,0,1.6,0.3,2.2,0.9S35.3,58.3,35.3,59.2z M33.1,60.3c0.3-0.3,0.4-0.7,0.4-1.1s-0.1-0.8-0.4-1.1s-0.6-0.5-1-0.5h-2.3v3.1h2.3
		C32.5,60.8,32.8,60.6,33.1,60.3z"/>
	<path class="st0" d="M38.2,63.6h4.9v1.5h-6.6v-9h6.6v1.5h-4.9v2.2h4.1v1.5h-4.1V63.6z"/>
	<path class="st0" d="M45.9,63.6h4.9v1.5h-6.6v-9h6.6v1.5h-4.9v2.2H50v1.5h-4.1V63.6z"/>
	<path class="st0" d="M59,56.1v9h-1.7l-3.6-6l0,0v6H52v-9h1.7l3.6,6l0,0v-6H59z"/>
	<path class="st0" d="M71.3,56.1l-3.2,9h-1.7l-3.2-9H65l2.2,6.5l0,0l2.2-6.5H71.3z"/>
	<path class="st0" d="M72.2,65.1v-9h1.7v9H72.2z"/>
	<path class="st0" d="M81.6,58.6h-1.7c0-0.3-0.1-0.6-0.4-0.9s-0.6-0.3-1.1-0.3c-0.4,0-0.8,0.1-1,0.3S77,58.1,77,58.5
		c0,0.3,0.1,0.5,0.3,0.7s0.4,0.3,0.7,0.4s0.6,0.2,0.9,0.2s0.7,0.2,1,0.3s0.7,0.2,0.9,0.4s0.5,0.4,0.7,0.8s0.3,0.8,0.3,1.3
		c0,0.9-0.3,1.5-1,2.1s-1.5,0.8-2.5,0.8s-1.8-0.3-2.4-0.8S75,63.5,75,62.6h1.7c0,0.4,0.2,0.7,0.5,1s0.7,0.4,1.2,0.4s0.9-0.1,1.2-0.4
		s0.5-0.6,0.5-0.9c0-0.3-0.1-0.5-0.3-0.7s-0.4-0.3-0.7-0.4s-0.6-0.2-0.9-0.2s-0.7-0.1-1-0.3s-0.7-0.2-0.9-0.4s-0.5-0.4-0.7-0.8
		s-0.3-0.8-0.3-1.3c0-0.8,0.3-1.4,0.9-1.9s1.4-0.7,2.3-0.7s1.7,0.2,2.3,0.7S81.6,57.8,81.6,58.6z"/>
	<path class="st0" d="M88.8,65.1l-0.5-1.6h-3.5l-0.5,1.6h-1.8l3.2-9h1.9l3.2,9H88.8z M86.5,58.2L85.3,62h2.5L86.5,58.2L86.5,58.2z"
		/>
</g>
</svg>
